#N canvas 800 30 798 263 10;
#X obj 365 220 sdScript;
#X obj 499 119 textfile;
#X obj 499 144 s \$0-script;
#X obj 499 71 loadbang;
#X msg 499 95 read SeqPlayer.script \, rewind \, bang;
#X connect 1 0 2 0;
#X connect 3 0 4 0;
#X connect 4 0 1 0;
