#N canvas 0 30 798 854 10;
#X obj 12 12 inlet;
#X obj 555 454 textfile;
#X obj 555 479 s \$0-script;
#X obj 238 250 r \$0-script;
#X obj 46 236 bng 15 250 50 0 empty empty empty 17 7 0 10 -262144 -1
-1;
#X msg 369 208 set TIME 0;
#X obj 128 361 route nextPack delay;
#X obj 75 295 list trim;
#X obj 555 406 loadbang;
#X obj 61 520 s \$0-reloop;
#X obj 95 240 r \$0-reloop;
#X obj 110 427 t b a;
#X obj 104 494 t b b;
#X obj 62 119 t b b;
#X obj 12 35 route start stop;
#X obj 297 756 outlet;
#X obj 14 124 bng 15 250 50 0 empty empty empty 17 7 0 10 -262144 -1
-1;
#X obj 472 178 list;
#X obj 92 142 s \$0-init;
#X obj 369 186 r \$0-init;
#X obj 465 129 r \$0-init;
#X obj 302 366 route stop;
#X obj 54 762 outlet;
#X msg 555 430 read SeqPlayer.script \, rewind \, bang;
#X obj 75 273 sdScript DATA TIME SPEED KEEPTIME startEvent countEvent
;
#X obj 470 229 sdSetSelector set;
#X obj 470 205 list prepend DATA;
#X obj 502 281 list prepend SPEED;
#X obj 502 303 sdSetSelector set;
#X obj 531 375 sdSetSelector set;
#X obj 531 353 list prepend KEEPTIME;
#X obj 441 159 bng 15 250 50 0 empty empty empty 17 7 0 10 -262144
-1 -1;
#X obj 498 153 r \$0-sequence;
#X obj 105 457 delay 0;
#X obj 531 329 r \$0-keepTime;
#X obj 502 258 r \$0-speed;
#X obj 283 106 sdPropertyList sequence \$0;
#X obj 514 531 sdUnPack;
#X obj 500 667 sdPack;
#X obj 472 620 sdData;
#X msg 498 582 clear;
#X obj 279 509 sdGate;
#X obj 312 486 r \$0-keepTime;
#X obj 450 557 t b a b;
#X msg 299 589 filterReject time del \, bang;
#X text 57 789 bang;
#X text 295 776 next;
#X obj 623 762 outlet;
#X text 622 789 delay;
#X obj 717 764 outlet;
#X text 714 789 done;
#X obj 716 704 r \$0-stop;
#X obj 204 428 s \$0-delay;
#X obj 174 400 t f f;
#X obj 603 685 r \$0-delay;
#X obj 245 468 list;
#X obj 320 393 s \$0-stop;
#X obj 183 82 sdProperty keepTime \$0 \$1 intern;
#X obj 614 24 sdFloatBang \$1;
#X msg 614 47 set \$1;
#X obj 614 70 s \$0-keepTime_rcv;
#X obj 106 58 sdProperty speed \$0 1 intern;
#X floatatom 643 281 5 0 0 0 - - -;
#X msg 342 36 init;
#X obj 342 13 loadbang;
#X connect 0 0 14 0;
#X connect 1 0 2 0;
#X connect 3 0 24 1;
#X connect 4 0 24 0;
#X connect 5 0 24 0;
#X connect 6 0 11 0;
#X connect 6 1 53 0;
#X connect 6 2 21 0;
#X connect 7 0 6 0;
#X connect 8 0 23 0;
#X connect 10 0 24 0;
#X connect 11 0 33 0;
#X connect 11 1 55 0;
#X connect 12 0 9 0;
#X connect 12 1 22 0;
#X connect 13 0 24 0;
#X connect 13 1 18 0;
#X connect 14 0 13 0;
#X connect 14 2 61 0;
#X connect 16 0 13 0;
#X connect 17 0 26 0;
#X connect 19 0 5 0;
#X connect 20 0 17 0;
#X connect 21 0 56 0;
#X connect 23 0 1 0;
#X connect 24 0 7 0;
#X connect 25 0 24 0;
#X connect 26 0 25 0;
#X connect 27 0 28 0;
#X connect 28 0 24 0;
#X connect 29 0 24 0;
#X connect 30 0 29 0;
#X connect 31 0 17 0;
#X connect 32 0 17 1;
#X connect 33 0 12 0;
#X connect 34 0 30 0;
#X connect 35 0 27 0;
#X connect 35 0 62 0;
#X connect 37 0 43 0;
#X connect 37 2 38 1;
#X connect 38 0 15 0;
#X connect 39 0 38 0;
#X connect 40 0 39 0;
#X connect 41 0 15 0;
#X connect 41 1 37 0;
#X connect 42 0 41 1;
#X connect 43 0 44 0;
#X connect 43 1 39 1;
#X connect 43 2 40 0;
#X connect 44 0 39 0;
#X connect 51 0 49 0;
#X connect 53 0 33 1;
#X connect 53 1 52 0;
#X connect 54 0 47 0;
#X connect 55 0 41 0;
#X connect 57 1 36 0;
#X connect 58 0 59 0;
#X connect 59 0 60 0;
#X connect 61 1 57 0;
#X connect 64 0 63 0;
