#N canvas 0 30 846 854 10;
#X obj 12 12 inlet;
#X obj 487 398 textfile;
#X obj 487 423 s \$0-script;
#X obj 315 267 r \$0-script;
#X obj 46 236 bng 15 250 50 0 empty empty empty 17 7 0 10 -262144 -1
-1;
#X obj 487 350 loadbang;
#X obj 141 581 t b a;
#X obj 12 35 route start stop;
#X obj 297 756 outlet;
#X obj 228 217 r \$0-init;
#X obj 54 762 outlet;
#X obj 98 227 sdSetSelector set;
#X obj 490 93 r \$0-sequence;
#X obj 492 179 r \$0-speed;
#X obj 283 106 sdPropertyList sequence \$0;
#X text 57 789 bang;
#X text 295 776 next;
#X obj 623 762 outlet;
#X text 622 789 delay;
#X obj 717 764 outlet;
#X text 714 789 done;
#X obj 716 704 r \$0-stop;
#X obj 212 542 s \$0-delay;
#X obj 603 685 r \$0-delay;
#X obj 275 667 list;
#X obj 331 567 s \$0-stop;
#X obj 671 23 sdFloatBang \$1;
#X msg 671 46 set \$1;
#X obj 671 69 s \$0-keepTime_rcv;
#X obj 106 58 sdProperty speed \$0 1 intern;
#X floatatom 453 204 5 0 0 0 - - -;
#X obj 490 117 list prepend sequence;
#X msg 228 239 set time 0;
#X obj 492 202 list prepend speed;
#X obj 98 204 r \$0-set_glob_var;
#X obj 490 140 s \$0-set_glob_var;
#X obj 492 224 s \$0-set_glob_var;
#X obj 485 303 s \$0-set_glob_var;
#X msg 487 374 read bang.script \, rewind \, bang;
#X obj 579 460 textfile;
#X obj 579 412 loadbang;
#X msg 579 436 read loop.script \, rewind \, bang;
#X obj 579 508 sdSetSelector prog_set;
#X obj 579 483 list prepend loop;
#X obj 644 7 bng 15 250 50 0 empty empty empty 17 7 0 10 -262144 -1
-1;
#X obj 159 515 route next_pack delay;
#X obj 75 271 sdScript sequence time speed keep_time;
#X obj 183 82 sdProperty keep_time \$0 \$1 intern;
#X obj 485 281 list prepend keep_time;
#X obj 485 257 r \$0-keep_time;
#X obj 197 10 loadbang;
#X msg 197 33 init;
#X floatatom 439 271 5 0 0 0 - - -;
#X msg 34 134 bang;
#X obj 313 540 route done;
#X connect 0 0 7 0;
#X connect 1 0 2 0;
#X connect 3 0 46 1;
#X connect 4 0 46 0;
#X connect 5 0 38 0;
#X connect 6 0 10 0;
#X connect 6 1 24 0;
#X connect 7 0 53 0;
#X connect 7 2 29 0;
#X connect 9 0 32 0;
#X connect 11 0 46 0;
#X connect 12 0 31 0;
#X connect 13 0 30 0;
#X connect 13 0 33 0;
#X connect 21 0 19 0;
#X connect 23 0 17 0;
#X connect 24 0 8 0;
#X connect 26 0 27 0;
#X connect 27 0 28 0;
#X connect 29 1 47 0;
#X connect 31 0 35 0;
#X connect 32 0 46 0;
#X connect 33 0 36 0;
#X connect 34 0 11 0;
#X connect 38 0 1 0;
#X connect 39 0 43 0;
#X connect 40 0 41 0;
#X connect 41 0 39 0;
#X connect 42 0 46 0;
#X connect 43 0 42 0;
#X connect 44 0 26 0;
#X connect 45 0 6 0;
#X connect 45 1 22 0;
#X connect 45 2 54 0;
#X connect 46 0 45 0;
#X connect 47 1 14 0;
#X connect 48 0 37 0;
#X connect 49 0 48 0;
#X connect 49 0 52 0;
#X connect 50 0 51 0;
#X connect 53 0 46 0;
#X connect 54 0 25 0;
