#N canvas 0 0 798 854 10;
#X obj 43 36 inlet~;
#X obj 29 307 outlet~;
#X obj 272 35 inlet;
#X obj 204 286 outlet~;
#X obj 272 128 expr $f1 \; 1-$f1;
#X floatatom 238 189 5 0 0 0 - - - 0;
#X floatatom 329 190 5 0 0 0 - - - 0;
#X obj 272 92 sdFloatBang \$1;
#X obj 75 237 pack 0 50;
#X obj 75 260 line~;
#X obj 38 241 *~;
#X obj 274 240 pack 0 50;
#X obj 274 263 line~;
#X obj 204 264 *~;
#X connect 0 0 10 0;
#X connect 0 0 13 0;
#X connect 2 0 7 0;
#X connect 4 0 5 0;
#X connect 4 0 8 0;
#X connect 4 1 6 0;
#X connect 4 1 11 0;
#X connect 7 0 4 0;
#X connect 8 0 9 0;
#X connect 9 0 10 1;
#X connect 10 0 1 0;
#X connect 11 0 12 0;
#X connect 12 0 13 1;
#X connect 13 0 3 0;
