#N canvas 0 30 894 854 10;
#X obj 27 24 inlet;
#X obj 27 98 outlet~;
#X obj 27 76 line~;
#X obj 27 50 pack 0 50;
#X obj 148 18 loadbang;
#X obj 148 41 f \$1;
#X obj 149 77 sdFilter 0;
#X connect 0 0 3 0;
#X connect 2 0 1 0;
#X connect 3 0 2 0;
#X connect 4 0 5 0;
#X connect 5 0 6 0;
#X connect 6 1 3 1;
