#N canvas 805 30 559 118 12;
#X obj 108 242 delay 5000;
#X obj 107 140 t b b;
#X obj 107 172 sdGate;
#X msg 205 265 1;
#X msg 148 285 0;
#X obj 170 368 outlet;
#X obj 290 72 t f f;
#X obj 3 10 inlet~;
#X obj 170 321 change;
#X msg 80 204 stop \, bang;
#X obj 2 85 threshold~ -1 100 1 100, f 13;
#X obj 612 26 inlet;
#X obj 226 109 t f f;
#X obj 258 149 != 0;
#X obj 258 198 route 1;
#X obj 258 172 change;
#X obj 290 39 sdFloatBang \$1;
#X obj 290 10 inlet reset-time;
#X text 401 36 0 means no autoreset;
#X text 612 4 reset;
#X obj 104 9 inlet~;
#X obj 103 84 threshold~ -1 100 1 100, f 13;
#X connect 0 0 4 0;
#X connect 1 0 2 0;
#X connect 1 1 3 0;
#X connect 2 0 9 0;
#X connect 3 0 8 0;
#X connect 4 0 8 0;
#X connect 6 0 12 0;
#X connect 6 1 0 1;
#X connect 7 0 10 0;
#X connect 8 0 5 0;
#X connect 9 0 0 0;
#X connect 10 0 1 0;
#X connect 10 1 1 0;
#X connect 11 0 8 0;
#X connect 12 0 2 1;
#X connect 12 1 13 0;
#X connect 13 0 15 0;
#X connect 14 0 4 0;
#X connect 15 0 14 0;
#X connect 16 0 6 0;
#X connect 17 0 16 0;
#X connect 20 0 21 0;
#X connect 21 0 1 0;
#X connect 21 1 1 0;
