#N canvas 0 30 762 722 12;
#X obj 63 349 delay 5000;
#X obj 62 247 t b b;
#X obj 62 279 sdGate;
#X msg 160 372 1;
#X msg 103 392 0;
#X obj 125 475 outlet;
#X obj 210 186 t f f;
#X obj 3 10 inlet~;
#X obj 125 428 change;
#X msg 35 311 stop \, bang;
#X obj 4 149 threshold~ -1 100 1 100, f 13;
#X obj 181 216 t f f;
#X obj 213 256 != 0;
#X obj 213 305 route 1;
#X obj 213 279 change;
#X text 531 173 0 means no autoreset;
#X obj 104 9 inlet~;
#X obj 105 148 threshold~ -1 100 1 100, f 13;
#X obj 444 99 sdProperty min \$0 -1 intern;
#X obj 454 127 sdProperty max \$0 1 intern;
#X obj 445 181 outlet;
#X obj 395 22 inlet msgs;
#X obj 462 154 sdProperty reset-time \$0 \$1 intern;
#X obj 212 158 r \$0-reset-time;
#X obj 386 69 route reset;
#X obj 330 107 s \$0-reset;
#X obj 194 372 r \$0-reset;
#X msg 194 397 0;
#X obj 169 6 r \$0-min;
#X obj 169 85 pack f f;
#X obj 235 8 r \$0-max;
#X obj 235 33 t b f;
#X msg 169 110 set \$1 100 \$2 100;
#X obj 180 61 f;
#X connect 0 0 4 0;
#X connect 1 0 2 0;
#X connect 1 1 3 0;
#X connect 2 0 9 0;
#X connect 3 0 8 0;
#X connect 4 0 8 0;
#X connect 6 0 11 0;
#X connect 6 1 0 1;
#X connect 7 0 10 0;
#X connect 8 0 5 0;
#X connect 9 0 0 0;
#X connect 10 0 1 0;
#X connect 10 1 1 0;
#X connect 11 0 2 1;
#X connect 11 1 12 0;
#X connect 12 0 14 0;
#X connect 13 0 4 0;
#X connect 14 0 13 0;
#X connect 16 0 17 0;
#X connect 17 0 1 0;
#X connect 17 1 1 0;
#X connect 18 0 20 0;
#X connect 18 1 19 0;
#X connect 19 0 20 0;
#X connect 19 1 22 0;
#X connect 21 0 24 0;
#X connect 22 0 20 0;
#X connect 23 0 6 0;
#X connect 24 0 25 0;
#X connect 24 1 18 0;
#X connect 26 0 27 0;
#X connect 27 0 8 0;
#X connect 28 0 33 0;
#X connect 29 0 32 0;
#X connect 30 0 31 0;
#X connect 31 0 33 0;
#X connect 31 1 29 1;
#X connect 32 0 17 0;
#X connect 32 0 10 0;
#X connect 33 0 29 0;
