#N canvas 0 30 681 722 10;
#X obj 120 181 snapshot~;
#X obj 307 143 metro 100;
#X obj 104 9 inlet~;
#X obj 292 7 inlet;
#X obj 120 215 outlet;
#X obj 291 71 route 0;
#X obj 328 94 t b f;
#X obj 291 48 sdFloatBang \$1;
#X connect 0 0 4 0;
#X connect 1 0 0 0;
#X connect 2 0 0 0;
#X connect 3 0 7 0;
#X connect 5 0 1 0;
#X connect 5 1 6 0;
#X connect 6 0 1 0;
#X connect 6 1 1 1;
#X connect 7 0 5 0;
