#N canvas 0 30 846 854 10;
#X obj 122 539 *~;
#X obj 189 539 *~;
#X obj 143 417 adc~;
#X obj 99 680 outlet~;
#X obj 259 680 outlet~;
#X obj 240 246 r \$0-slider;
#X obj 240 269 s \$0-num_rcv;
#X obj 242 400 r \$0-num;
#X obj 244 28 t b b;
#X obj 290 66 f \$1;
#X obj 244 5 loadbang;
#X obj 605 24 namecanvas \$0-canvas;
#X text 602 6 give this canvas a unique name:;
#X obj 2 5 vsl 15 33 0 1 0 0 \$0-slider \$0-slider_rcv empty 0 -9 0
10 -262144 -1 -1 0 1;
#X obj 2 44 nbx 3 14 0 1 0 0 \$0-num \$0-num_rcv empty 0 -8 0 8 -262144
-1 -1 0 256;
#X obj 345 3 inlet;
#X obj 21 3 tgl 15 0 \$0-toggle \$0-toggle_rcv empty 17 7 0 10 -262144
-1 -1 0 1;
#X obj 507 264 r \$0-toggle;
#X obj 225 163 r \$0-num;
#X msg 225 186 set \$1;
#X obj 225 209 s \$0-slider_rcv;
#X obj 553 361 s \$0-slider_rcv;
#X obj 567 334 f;
#X obj 639 246 r \$0-num;
#X obj 614 289 route 0;
#X obj 507 287 route 1;
#X obj 341 209 s \$0-toggle_rcv;
#X obj 288 95 s \$0-slider_rcv;
#X obj 242 446 line~;
#X obj 242 423 pack 0 50;
#X text 17 26 in;
#X connect 0 0 3 0;
#X connect 1 0 4 0;
#X connect 2 0 0 0;
#X connect 2 1 1 0;
#X connect 5 0 6 0;
#X connect 7 0 29 0;
#X connect 8 0 9 0;
#X connect 9 0 27 0;
#X connect 10 0 8 0;
#X connect 15 0 9 0;
#X connect 17 0 25 0;
#X connect 18 0 19 0;
#X connect 19 0 20 0;
#X connect 19 0 26 0;
#X connect 22 0 21 0;
#X connect 23 0 24 0;
#X connect 24 1 22 1;
#X connect 25 0 22 0;
#X connect 25 1 21 0;
#X connect 28 0 1 1;
#X connect 28 0 0 1;
#X connect 29 0 28 0;
#X coords 0 -1 1 1 39 62 2 0 0;
