#N canvas 0 30 803 722 10;
#X obj 92 327 outlet~;
#X obj 151 327 outlet~;
#X obj 344 38 inlet;
#X obj 547 325 outlet;
#X obj 464 128 list;
#X obj 179 197 sdEventToProperties;
#X text 377 173 events;
#X text 436 173 msgs;
#X obj 209 326 s \$0-fromObj;
#X obj 464 106 r \$0-fromObj;
#X obj 394 153 sdObjState \$1 \$2 \$3;
#X obj 92 304 sdIn~ \$4, f 20;
#X connect 2 0 10 0;
#X connect 4 0 10 1;
#X connect 5 0 11 0;
#X connect 5 1 11 0;
#X connect 9 0 4 0;
#X connect 10 0 5 0;
#X connect 10 1 11 0;
#X connect 10 2 3 0;
#X connect 11 0 0 0;
#X connect 11 1 1 0;
#X connect 11 2 8 0;
