#N canvas 0 30 844 722 10;
#X obj 321 210 outlet~;
#X obj 374 210 outlet~;
#X obj 46 313 r \$0-slider;
#X obj 46 336 s \$0-num_rcv;
#X obj 42 105 r \$0-num;
#X obj 2 5 vsl 15 33 0 1 0 0 \$0-slider \$0-slider_rcv empty 0 -9 0
10 -262144 -1 -1 0 1;
#X obj 2 44 nbx 3 14 0 1 0 0 \$0-num \$0-num_rcv empty 0 -8 0 8 -262144
-1 -1 0 256;
#X obj 345 3 inlet;
#X obj 21 3 tgl 15 0 \$0-toggle \$0-toggle_rcv empty 17 7 0 10 -262144
-1 -1 0 1;
#X obj 44 398 r \$0-toggle;
#X obj 31 230 r \$0-num;
#X msg 31 253 set \$1;
#X obj 31 276 s \$0-slider_rcv;
#X obj 90 495 s \$0-slider_rcv;
#X obj 104 468 f;
#X obj 176 380 r \$0-num;
#X obj 151 423 route 0;
#X obj 44 421 route 1;
#X obj 147 276 s \$0-toggle_rcv;
#X text 17 26 in;
#X obj 459 266 outlet;
#X obj 42 128 sdPack volume;
#X obj 42 151 sdPack set;
#X obj 42 174 s \$1;
#X obj 321 186 sdIn_obj~ \$1 \$2 \$3;
#X obj 459 218 t a a;
#X obj 551 252 sdObjTrack volume;
#X obj 551 275 sdPackToMessage;
#X obj 551 298 route volume;
#X msg 551 321 set \$1;
#X obj 531 367 s \$0-slider_rcv;
#X obj 551 344 s \$0-num_rcv;
#X connect 2 0 3 0;
#X connect 4 0 21 0;
#X connect 7 0 24 0;
#X connect 9 0 17 0;
#X connect 10 0 11 0;
#X connect 11 0 12 0;
#X connect 11 0 18 0;
#X connect 14 0 13 0;
#X connect 15 0 16 0;
#X connect 16 1 14 1;
#X connect 17 0 14 0;
#X connect 17 1 13 0;
#X connect 21 0 22 0;
#X connect 22 0 23 0;
#X connect 24 0 0 0;
#X connect 24 1 1 0;
#X connect 24 2 25 0;
#X connect 25 0 20 0;
#X connect 25 1 26 0;
#X connect 26 0 27 0;
#X connect 27 0 28 0;
#X connect 28 0 29 0;
#X connect 29 0 31 0;
#X connect 29 0 30 0;
#X coords 0 -1 1 1 39 62 2 0 0;
