#N canvas 0 30 844 722 10;
#X obj 122 539 *~;
#X obj 189 539 *~;
#X obj 143 417 adc~;
#X obj 99 680 outlet~;
#X obj 259 680 outlet~;
#X obj 242 446 line~;
#X obj 242 423 pack 0 50;
#X obj 242 423;
#X obj 393 32 inlet;
#X obj 495 672 outlet;
#X obj 242 400 r \$0-volume;
#X obj 393 55 sdProperty volume \$0 \$1 intern;
#X connect 0 0 3 0;
#X connect 1 0 4 0;
#X connect 2 0 0 0;
#X connect 2 1 1 0;
#X connect 5 0 1 1;
#X connect 5 0 0 1;
#X connect 6 0 5 0;
#X connect 8 0 11 0;
#X connect 10 0 6 0;
#X connect 10 0 7 0;
#X connect 11 0 9 0;
