#N canvas 0 30 844 722 10;
#X obj 145 4 tgl 15 0 \$0-dsp \$0-dsp_rcv dsp 17 7 0 10 -262144 -1
-1 1 1;
#X obj 114 19 vsl 15 33 0 1 0 0 \$0-out-slider \$0-out-slider_rcv empty
0 -9 0 10 -262144 -1 -1 1500 1;
#X obj 114 58 nbx 3 14 0 1 0 0 \$0-out-num \$0-out-num_rcv empty 0
-8 0 8 -262144 -1 -1 0.46875 256;
#X text 113 -1 out;
#X obj 313 14 inlet~;
#X obj 373 14 inlet~;
#X msg 34 449 set \$1;
#X obj 481 586 f;
#X obj 494 554 route 0;
#X obj 421 539 route 1;
#X obj 421 516 r \$0-dsp;
#X obj 34 379 r \$0-out-slider;
#X obj 34 472 s \$0-out-slider_rcv;
#X obj 467 613 s \$0-out-slider_rcv;
#X obj 34 402 s \$0-out-num_rcv;
#X obj 34 426 r \$0-out-num;
#X obj 494 530 r \$0-out-num;
#X obj 2 18 vsl 15 33 0 1 0 0 \$0-in-slider \$0-in-slider_rcv empty
0 -9 0 10 -262144 -1 -1 2200 1;
#X obj 2 57 nbx 3 14 0 1 0 0 \$0-in-num \$0-in-num_rcv empty 0 -8 0
8 -262144 -1 -1 0.6875 256;
#X obj 21 16 tgl 15 0 \$0-in-toggle \$0-in-toggle_rcv empty 17 7 0
10 -262144 -1 -1 0.6875 1;
#X text 0 1 in;
#X msg 34 266 set \$1;
#X obj 321 306 f;
#X obj 337 284 route 0;
#X obj 321 238 route 1, f 18;
#X obj 33 289 s \$0-in-slider_rcv;
#X obj 24 312 s \$0-in-toggle_rcv;
#X obj 35 195 r \$0-in-slider;
#X obj 35 218 s \$0-in-num_rcv;
#X obj 187 223 r \$0-in-num;
#X obj 366 332 s \$0-in-slider_rcv;
#X obj 337 261 r \$0-in-num;
#X obj 321 214 r \$0-in-toggle;
#X obj 35 242 r \$0-in-num;
#X obj 60 18 vsl 15 33 0 1 0 0 \$0-sc-slider \$0-sc-slider_rcv empty
0 -9 0 10 -262144 -1 -1 0 1;
#X obj 60 57 nbx 3 14 0 1 0 0 \$0-sc-num \$0-sc-num_rcv empty 0 -8
0 8 -262144 -1 -1 0 256;
#X text 58 0 ->;
#X msg 39 632 set \$1;
#X obj 40 608 r \$0-sc-num;
#X obj 38 655 s \$0-sc-slider_rcv;
#X obj 29 678 s \$0-sc-toggle_rcv;
#X obj 40 561 r \$0-sc-slider;
#X obj 40 584 s \$0-sc-num_rcv;
#X obj 2 75 cnv 15 40 14 empty \$0-in-cnv_rcv 0.74 1 9 1 14 -233017
-66577 0;
#X obj 192 159 s \$0-in-cnv_rcv;
#X obj 114 75 cnv 15 40 14 empty \$0-out-cnv_rcv 0 1 9 1 14 -233017
-66577 0;
#N canvas 0 30 798 854 env 0;
#X obj 43 18 inlet~;
#X obj 56 350 outlet;
#X obj 73 70 env~;
#X obj 71 126 / 100;
#X msg 63 174 label \$1;
#X obj 71 149 l2s;
#X obj 73 93 int;
#X connect 0 0 2 0;
#X connect 2 0 6 0;
#X connect 3 0 5 0;
#X connect 4 0 1 0;
#X connect 5 0 4 0;
#X connect 6 0 3 0;
#X restore 192 132 pd env;
#N canvas 0 30 798 854 env 0;
#X obj 43 18 inlet~;
#X obj 56 350 outlet;
#X obj 73 70 env~;
#X obj 71 126 / 100;
#X msg 63 174 label \$1;
#X obj 71 149 l2s;
#X obj 73 93 int;
#X connect 0 0 2 0;
#X connect 2 0 6 0;
#X connect 3 0 5 0;
#X connect 4 0 1 0;
#X connect 5 0 4 0;
#X connect 6 0 3 0;
#X restore 423 152 pd env;
#X obj 423 179 s \$0-out-cnv_rcv;
#X obj 312 75 sdIO_obj~ \$1 \$2 \$3 \$4;
#X obj 242 129 outlet~;
#X obj 296 129 outlet~;
#X obj 478 22 inlet;
#X obj 476 152 outlet;
#X obj 495 105 t a a;
#X obj 352 127 outlet~;
#X obj 428 125 outlet~;
#X obj 187 246 sdPack in-vol;
#X obj 187 269 sdPack set;
#X obj 187 292 s \$1;
#X obj 548 151 sdPackToMessage;
#X obj 548 378 s \$0-in-slider_rcv;
#X msg 548 356 set \$1;
#X obj 533 401 s \$0-in-num_rcv;
#X msg 613 305 set \$1;
#X obj 601 350 s \$0-out-num_rcv;
#X obj 613 327 s \$0-out-slider_rcv;
#X obj 188 424 sdPack set;
#X obj 188 447 s \$1;
#X obj 188 378 r \$0-out-num;
#X obj 188 401 sdPack out-vol;
#X obj 548 174 route in-vol out-vol shortcut-vol;
#X msg 678 252 set \$1;
#X obj 663 297 s \$0-sc-num_rcv;
#X obj 678 274 s \$0-sc-slider_rcv;
#X obj 188 604 sdPack set;
#X obj 188 627 s \$1;
#X obj 188 558 r \$0-sc-num;
#X obj 188 581 sdPack shortcut-vol;
#X msg 743 220 set \$1;
#X obj 743 242 s \$0-dsp_rcv;
#X obj 361 603 sdPack set;
#X obj 361 626 s \$1;
#X obj 548 128 sdObjTrack audio-on in-vol out-vol shortcut-vol;
#X obj 743 197 route audio-on;
#X obj 361 580 sdPack audio-on;
#X connect 4 0 49 0;
#X connect 5 0 49 1;
#X connect 6 0 12 0;
#X connect 7 0 13 0;
#X connect 8 1 7 1;
#X connect 9 0 7 0;
#X connect 9 1 13 0;
#X connect 10 0 9 0;
#X connect 10 0 85 0;
#X connect 11 0 14 0;
#X connect 15 0 6 0;
#X connect 16 0 8 0;
#X connect 21 0 25 0;
#X connect 21 0 26 0;
#X connect 22 0 30 0;
#X connect 23 1 22 1;
#X connect 24 0 22 0;
#X connect 24 1 30 0;
#X connect 27 0 28 0;
#X connect 29 0 57 0;
#X connect 31 0 23 0;
#X connect 32 0 24 0;
#X connect 33 0 21 0;
#X connect 37 0 39 0;
#X connect 37 0 40 0;
#X connect 38 0 37 0;
#X connect 41 0 42 0;
#X connect 46 0 44 0;
#X connect 47 0 48 0;
#X connect 49 0 50 0;
#X connect 49 0 46 0;
#X connect 49 1 51 0;
#X connect 49 1 46 0;
#X connect 49 2 47 0;
#X connect 49 2 55 0;
#X connect 49 3 47 0;
#X connect 49 3 56 0;
#X connect 49 4 54 0;
#X connect 52 0 49 2;
#X connect 54 0 53 0;
#X connect 54 1 83 0;
#X connect 57 0 58 0;
#X connect 58 0 59 0;
#X connect 60 0 71 0;
#X connect 62 0 61 0;
#X connect 62 0 63 0;
#X connect 64 0 66 0;
#X connect 64 0 65 0;
#X connect 67 0 68 0;
#X connect 69 0 70 0;
#X connect 70 0 67 0;
#X connect 71 0 62 0;
#X connect 71 1 64 0;
#X connect 71 2 72 0;
#X connect 71 3 84 0;
#X connect 72 0 74 0;
#X connect 72 0 73 0;
#X connect 75 0 76 0;
#X connect 77 0 78 0;
#X connect 78 0 75 0;
#X connect 79 0 80 0;
#X connect 81 0 82 0;
#X connect 83 0 60 0;
#X connect 84 0 79 0;
#X connect 85 0 81 0;
#X coords 0 -1 1 1 180 100 2 0 0;
