#N canvas 0 30 798 854 10;
#X obj 145 4 tgl 15 0 \$0-dsp \$0-dsp dsp 17 7 0 10 -262144 -1 -1 0
1;
#X obj 114 19 vsl 15 33 0 1 0 0 \$0-out-slider \$0-out-slider_rcv empty
0 -9 0 10 -262144 -1 -1 0 1;
#X obj 114 58 nbx 3 14 0 1 0 0 \$0-out-num \$0-out-num_rcv empty 0
-8 0 8 -262144 -1 -1 0 256;
#X text 113 -1 out;
#X obj 343 305 dac~;
#X obj 314 251 *~;
#X obj 313 14 inlet~;
#X obj 394 16 inlet~;
#X obj 381 251 *~;
#X obj 316 133 clip~ -1 1;
#X obj 395 132 clip~ -1 1;
#X obj 615 183 loadbang;
#X obj 732 15 inlet;
#X msg 574 54 set \$1;
#X obj 659 382 f;
#X obj 672 350 route 0;
#X obj 599 335 route 1;
#X obj 471 219 line~;
#X obj 471 168 dbtorms;
#X obj 471 144 * 100;
#X msg 547 503 \; pd dsp \$1;
#X msg 558 463 1;
#X msg 618 473 0;
#X floatatom 517 146 5 0 0 0 - - -;
#X obj 317 186 hip~ 3;
#X obj 395 197 hip~ 3;
#X obj 619 450 del 50;
#X obj 471 196 pack 0 50;
#X obj 565 410 route 0;
#X obj 599 312 r \$0-dsp;
#X obj 574 103 r \$0-out-slider;
#X obj 574 77 s \$0-out-slider_rcv;
#X obj 618 241 s \$0-out-slider_rcv;
#X obj 645 409 s \$0-out-slider_rcv;
#X obj 574 126 s \$0-out-num_rcv;
#X obj 574 31 r \$0-out-num;
#X obj 672 326 r \$0-out-num;
#X obj 471 121 r \$0-out-num;
#X obj 2 18 vsl 15 33 0 1 0 0 \$0-in-slider \$0-in-slider_rcv empty
0 -9 0 10 -262144 -1 -1 0 1;
#X obj 2 57 nbx 3 14 0 1 0 0 \$0-in-num \$0-in-num_rcv empty 0 -8 0
8 -262144 -1 -1 0 256;
#X obj 21 16 tgl 15 0 \$0-in-toggle \$0-in-toggle_rcv empty 17 7 0
10 -262144 -1 -1 0 1;
#X text 0 1 in;
#X obj 56 718 *~;
#X obj 123 718 *~;
#X obj 56 529 adc~;
#X obj 55 815 outlet~;
#X obj 122 812 outlet~;
#X obj 46 186 f \$1;
#X obj 35 160 loadbang;
#X obj 500 11 inlet;
#X msg 32 270 set \$1;
#X obj 103 451 f;
#X obj 137 420 route 0;
#X obj 41 420 route 1;
#X obj 157 692 line~;
#X obj 157 669 pack 0 50;
#X obj 44 215 s \$0-in-slider_rcv;
#X obj 31 293 s \$0-in-slider_rcv;
#X obj 22 316 s \$0-in-toggle_rcv;
#X obj 33 341 r \$0-in-slider;
#X obj 33 364 s \$0-in-num_rcv;
#X obj 157 646 r \$0-in-num;
#X obj 89 478 s \$0-in-slider_rcv;
#X obj 137 397 r \$0-in-num;
#X obj 41 396 r \$0-in-toggle;
#X obj 33 246 r \$0-in-num;
#X obj 60 18 vsl 15 33 0 1 0 0 \$0-sc-slider \$0-sc-slider_rcv empty
0 -9 0 10 -262144 -1 -1 0 1;
#X obj 60 57 nbx 3 14 0 1 0 0 \$0-sc-num \$0-sc-num_rcv empty 0 -8
0 8 -262144 -1 -1 0 256;
#X text 58 0 ->;
#X msg 474 652 set \$1;
#X obj 475 628 r \$0-sc-num;
#X obj 473 675 s \$0-sc-slider_rcv;
#X obj 464 698 s \$0-sc-toggle_rcv;
#X obj 480 739 r \$0-sc-slider;
#X obj 480 762 s \$0-sc-num_rcv;
#X obj 90 613 s~ \$0-sc-l;
#X obj 164 511 r \$0-sc-num;
#X obj 164 557 line~;
#X obj 164 534 pack 0 50;
#X obj 90 589 *~;
#X obj 172 587 *~;
#X obj 172 611 s~ \$0-sc-r;
#X obj 332 70 r~ \$0-sc-l;
#X obj 414 68 r~ \$0-sc-r;
#X obj 2 75 cnv 15 40 14 empty \$0-in-cnv_rcv 0.24 1 9 1 14 -233017
-66577 0;
#X obj 192 795 s \$0-in-cnv_rcv;
#X obj 114 75 cnv 15 40 14 empty \$0-out-cnv_rcv 0.35 1 9 1 14 -233017
-66577 0;
#N canvas 0 30 798 854 env 0;
#X obj 43 18 inlet~;
#X obj 56 350 outlet;
#X obj 73 70 env~;
#X obj 71 126 / 100;
#X msg 63 174 label \$1;
#X obj 71 149 l2s;
#X obj 73 93 int;
#X connect 0 0 2 0;
#X connect 2 0 6 0;
#X connect 3 0 5 0;
#X connect 4 0 1 0;
#X connect 5 0 4 0;
#X connect 6 0 3 0;
#X restore 192 768 pd env;
#N canvas 0 30 798 854 env 0;
#X obj 43 18 inlet~;
#X obj 56 350 outlet;
#X obj 73 70 env~;
#X obj 71 126 / 100;
#X msg 63 174 label \$1;
#X obj 71 149 l2s;
#X obj 73 93 int;
#X connect 0 0 2 0;
#X connect 2 0 6 0;
#X connect 3 0 5 0;
#X connect 4 0 1 0;
#X connect 5 0 4 0;
#X connect 6 0 3 0;
#X restore 288 318 pd env;
#X obj 288 345 s \$0-out-cnv_rcv;
#X obj 620 212 f \$2;
#X connect 5 0 4 0;
#X connect 5 0 88 0;
#X connect 6 0 9 0;
#X connect 7 0 10 0;
#X connect 8 0 4 1;
#X connect 8 0 88 0;
#X connect 9 0 24 0;
#X connect 10 0 25 0;
#X connect 11 0 90 0;
#X connect 12 0 90 0;
#X connect 13 0 31 0;
#X connect 14 0 33 0;
#X connect 15 1 14 1;
#X connect 16 0 14 0;
#X connect 16 1 33 0;
#X connect 17 0 5 1;
#X connect 17 0 8 1;
#X connect 18 0 27 0;
#X connect 19 0 18 0;
#X connect 21 0 20 0;
#X connect 22 0 20 0;
#X connect 24 0 5 0;
#X connect 25 0 8 0;
#X connect 26 0 22 0;
#X connect 27 0 17 0;
#X connect 28 0 26 0;
#X connect 28 1 21 0;
#X connect 29 0 16 0;
#X connect 29 0 28 0;
#X connect 30 0 34 0;
#X connect 35 0 13 0;
#X connect 36 0 15 0;
#X connect 37 0 19 0;
#X connect 37 0 23 0;
#X connect 42 0 45 0;
#X connect 42 0 87 0;
#X connect 43 0 46 0;
#X connect 43 0 87 0;
#X connect 44 0 42 0;
#X connect 44 0 79 0;
#X connect 44 1 43 0;
#X connect 44 1 80 0;
#X connect 47 0 56 0;
#X connect 48 0 47 0;
#X connect 49 0 47 0;
#X connect 50 0 57 0;
#X connect 50 0 58 0;
#X connect 51 0 62 0;
#X connect 52 1 51 1;
#X connect 53 0 51 0;
#X connect 53 1 62 0;
#X connect 54 0 43 1;
#X connect 54 0 42 1;
#X connect 55 0 54 0;
#X connect 59 0 60 0;
#X connect 61 0 55 0;
#X connect 63 0 52 0;
#X connect 64 0 53 0;
#X connect 65 0 50 0;
#X connect 69 0 71 0;
#X connect 69 0 72 0;
#X connect 70 0 69 0;
#X connect 73 0 74 0;
#X connect 76 0 78 0;
#X connect 77 0 79 1;
#X connect 77 0 80 1;
#X connect 78 0 77 0;
#X connect 79 0 75 0;
#X connect 80 0 81 0;
#X connect 82 0 9 0;
#X connect 83 0 10 0;
#X connect 87 0 85 0;
#X connect 88 0 89 0;
#X connect 90 0 32 0;
#X coords 0 -1 1 1 180 100 2 0 0;
