#N canvas 0 30 681 722 10;
#X obj 233 299 dac~;
#X obj 204 245 *~;
#X obj 203 8 inlet~;
#X obj 284 10 inlet~;
#X obj 271 245 *~;
#X obj 206 127 clip~ -1 1;
#X obj 285 126 clip~ -1 1;
#X obj 361 213 line~;
#X obj 361 162 dbtorms;
#X obj 361 138 * 100;
#X msg 393 364 \; pd dsp \$1;
#X msg 393 335 1;
#X msg 440 339 0;
#X floatatom 402 136 5 0 0 0 - - -;
#X obj 207 180 hip~ 3;
#X obj 285 191 hip~ 3;
#X obj 441 316 del 50;
#X obj 361 190 pack 0 50;
#X obj 387 286 route 0;
#X obj 16 228 *~;
#X obj 83 228 *~;
#X obj 16 39 adc~;
#X obj 15 265 outlet~;
#X obj 82 262 outlet~;
#X obj 389 6 inlet;
#X obj 99 200 line~;
#X obj 99 177 pack 0 50;
#X obj 30 123 s~ \$0-sc-l;
#X obj 90 62 line~;
#X obj 90 39 pack 0 50;
#X obj 30 99 *~;
#X obj 104 95 *~;
#X obj 104 119 s~ \$0-sc-r;
#X obj 222 64 r~ \$0-sc-l;
#X obj 304 62 r~ \$0-sc-r;
#X obj 174 300 outlet~;
#X obj 281 299 outlet~;
#X obj 361 115 r \$0-out-vol;
#X obj 99 154 r \$0-in-vol;
#X obj 90 16 r \$0-shortcut-vol;
#X obj 447 138 outlet;
#X obj 371 258 r \$0-audio-on;
#X obj 432 29 sdProperty in-vol \$0 \$1 intern 0 1;
#X obj 445 54 sdProperty out-vol \$0 \$2 intern 0 1;
#X obj 451 82 sdProperty shortcut-vol \$0 0 intern 0 1;
#X obj 465 111 sdProperty audio-on \$0 0 intern 0 1;
#X connect 1 0 0 0;
#X connect 1 0 35 0;
#X connect 2 0 5 0;
#X connect 3 0 6 0;
#X connect 4 0 0 1;
#X connect 4 0 36 0;
#X connect 5 0 14 0;
#X connect 6 0 15 0;
#X connect 7 0 1 1;
#X connect 7 0 4 1;
#X connect 8 0 17 0;
#X connect 9 0 8 0;
#X connect 11 0 10 0;
#X connect 12 0 10 0;
#X connect 14 0 1 0;
#X connect 15 0 4 0;
#X connect 16 0 12 0;
#X connect 17 0 7 0;
#X connect 18 0 16 0;
#X connect 18 1 11 0;
#X connect 19 0 22 0;
#X connect 20 0 23 0;
#X connect 21 0 19 0;
#X connect 21 0 30 0;
#X connect 21 1 20 0;
#X connect 21 1 31 0;
#X connect 24 0 42 0;
#X connect 25 0 20 1;
#X connect 25 0 19 1;
#X connect 26 0 25 0;
#X connect 28 0 30 1;
#X connect 28 0 31 1;
#X connect 29 0 28 0;
#X connect 30 0 27 0;
#X connect 31 0 32 0;
#X connect 33 0 5 0;
#X connect 34 0 6 0;
#X connect 37 0 9 0;
#X connect 37 0 13 0;
#X connect 38 0 26 0;
#X connect 39 0 29 0;
#X connect 41 0 18 0;
#X connect 42 0 40 0;
#X connect 42 1 43 0;
#X connect 43 0 40 0;
#X connect 43 1 44 0;
#X connect 44 0 40 0;
#X connect 44 1 45 0;
#X connect 45 0 40 0;
