#N canvas 0 0 894 852 10;
#X obj 233 299 dac~;
#X obj 198 162 *~;
#X obj 203 8 inlet~;
#X obj 284 10 inlet~;
#X obj 295 157 *~;
#X obj 392 117 line~;
#X obj 392 71 dbtorms;
#X obj 392 47 * 100;
#X msg 573 451 \; pd dsp \$1;
#X msg 573 422 1;
#X msg 620 426 0;
#X floatatom 433 45 5 0 0 0 - - - 0;
#X obj 621 403 del 50;
#X obj 392 94 pack 0 50;
#X obj 567 373 route 0;
#X obj 16 228 *~;
#X obj 83 228 *~;
#X obj 16 39 adc~;
#X obj 24 604 outlet~;
#X obj 93 605 outlet~;
#X obj 507 14 inlet;
#X obj 99 200 line~;
#X obj 99 177 pack 0 50;
#X obj 30 123 s~ \$0-sc-l;
#X obj 90 62 line~;
#X obj 90 39 pack 0 50;
#X obj 30 99 *~;
#X obj 104 95 *~;
#X obj 104 119 s~ \$0-sc-r;
#X obj 214 65 r~ \$0-sc-l;
#X obj 305 61 r~ \$0-sc-r;
#X obj 174 300 outlet~;
#X obj 281 299 outlet~;
#X obj 392 24 r \$0-out-vol;
#X obj 99 154 r \$0-in-vol;
#X obj 90 16 r \$0-shortcut-vol;
#X obj 527 282 outlet;
#X obj 551 345 r \$0-audio-on;
#X obj 507 37 sdProperty in-vol \$0 \$1 intern 0 1;
#X obj 520 62 sdProperty out-vol \$0 \$2 intern 0 1;
#X obj 526 90 sdProperty shortcut-vol \$0 0 intern 0 1;
#X obj 286 84 +~;
#X obj 284 36 hip~ 5;
#X obj 203 37 hip~ 5;
#X obj 199 89 +~;
#X obj 598 249 sdProperty overflow-reset \$0 1000 intern;
#X obj 188 266 clip~ -1 1;
#X obj 285 265 clip~ -1 1;
#X obj 23 572 clip~ -1 1;
#X obj 94 578 clip~ -1 1;
#X obj 592 222 sdProperty out-limit \$0 1 intern 0 1;
#X obj 865 439 r \$0-overflow-reset;
#X msg 749 603 priv.set \$1;
#X msg 865 462 set reset-time \$1;
#X msg 812 455 reset;
#X obj 812 409 r \$0-out-overflow;
#X obj 871 487 r \$0-out-limit;
#X obj 749 634 s \$0-out-overflow_rcv;
#X msg 870 547 set min \$1;
#X msg 944 549 set max \$1;
#X obj 870 510 expr -$f1 \; $f1;
#X obj 750 578 sdOverflow2~ 1000;
#X obj 812 432 route 0;
#X obj 316 373 r \$0-overflow-reset;
#X msg 200 537 priv.set \$1;
#X msg 316 396 set reset-time \$1;
#X msg 263 389 reset;
#X msg 321 481 set min \$1;
#X msg 395 483 set max \$1;
#X obj 321 444 expr -$f1 \; $f1;
#X obj 201 512 sdOverflow2~ 1000;
#X obj 263 366 route 0;
#X obj 263 343 r \$0-in-overflow;
#X obj 321 421 r \$0-in-limit;
#X obj 200 568 s \$0-in-overflow_rcv;
#X obj 575 197 sdProperty in-limit \$0 0.95 intern 0 1;
#X obj 540 119 sdProperty audio-on \$0 0 intern 0 1 1;
#X obj 552 147 sdProperty in-overflow \$0 0 intern 0 1 1;
#X obj 564 172 sdProperty out-overflow \$0 0 intern 0 1 1;
#X connect 1 0 46 0;
#X connect 1 0 61 0;
#X connect 2 0 43 0;
#X connect 3 0 42 0;
#X connect 4 0 47 0;
#X connect 4 0 61 1;
#X connect 5 0 1 1;
#X connect 5 0 4 1;
#X connect 6 0 13 0;
#X connect 7 0 6 0;
#X connect 9 0 8 0;
#X connect 10 0 8 0;
#X connect 12 0 10 0;
#X connect 13 0 5 0;
#X connect 14 0 12 0;
#X connect 14 1 9 0;
#X connect 15 0 48 0;
#X connect 15 0 70 0;
#X connect 16 0 49 0;
#X connect 16 0 70 1;
#X connect 17 0 15 0;
#X connect 17 0 26 0;
#X connect 17 1 16 0;
#X connect 17 1 27 0;
#X connect 20 0 38 0;
#X connect 21 0 16 1;
#X connect 21 0 15 1;
#X connect 22 0 21 0;
#X connect 24 0 26 1;
#X connect 24 0 27 1;
#X connect 25 0 24 0;
#X connect 26 0 23 0;
#X connect 27 0 28 0;
#X connect 29 0 44 1;
#X connect 30 0 41 1;
#X connect 33 0 7 0;
#X connect 33 0 11 0;
#X connect 34 0 22 0;
#X connect 35 0 25 0;
#X connect 37 0 14 0;
#X connect 38 0 36 0;
#X connect 38 1 39 0;
#X connect 39 0 36 0;
#X connect 39 1 40 0;
#X connect 40 0 36 0;
#X connect 40 1 76 0;
#X connect 41 0 4 0;
#X connect 42 0 41 0;
#X connect 43 0 44 0;
#X connect 44 0 1 0;
#X connect 45 0 36 0;
#X connect 46 0 31 0;
#X connect 46 0 0 0;
#X connect 47 0 0 1;
#X connect 47 0 32 0;
#X connect 48 0 18 0;
#X connect 49 0 19 0;
#X connect 50 0 36 0;
#X connect 50 1 45 0;
#X connect 51 0 53 0;
#X connect 52 0 57 0;
#X connect 53 0 61 2;
#X connect 54 0 61 2;
#X connect 55 0 62 0;
#X connect 56 0 60 0;
#X connect 58 0 61 2;
#X connect 59 0 61 2;
#X connect 60 0 58 0;
#X connect 60 1 59 0;
#X connect 61 0 52 0;
#X connect 62 0 54 0;
#X connect 63 0 65 0;
#X connect 64 0 74 0;
#X connect 65 0 70 2;
#X connect 66 0 70 2;
#X connect 67 0 70 2;
#X connect 68 0 70 2;
#X connect 69 0 67 0;
#X connect 69 1 68 0;
#X connect 70 0 64 0;
#X connect 71 0 66 0;
#X connect 72 0 71 0;
#X connect 73 0 69 0;
#X connect 75 0 36 0;
#X connect 75 1 50 0;
#X connect 76 0 36 0;
#X connect 76 1 77 0;
#X connect 77 0 36 0;
#X connect 77 1 78 0;
#X connect 78 0 36 0;
#X connect 78 1 75 0;
