#N canvas 0 30 803 722 10;
#X obj 145 4 tgl 15 0 \$0-dsp \$0-dsp_rcv dsp 17 7 0 10 -262144 -1
-1 1 1;
#X obj 114 19 vsl 15 33 0 1 0 0 \$0-out-slider \$0-out-slider_rcv empty
0 -9 0 10 -262144 -1 -1 0 1;
#X obj 114 58 nbx 3 14 0 1 0 0 \$0-out-num \$0-out-num_rcv empty 0
-8 0 8 -262144 -1 -1 0 256;
#X text 113 -1 out;
#X obj 313 14 inlet~;
#X obj 373 14 inlet~;
#X msg 34 449 set \$1;
#X obj 385 474 f;
#X obj 398 442 route 0;
#X obj 325 427 route 1;
#X obj 325 404 r \$0-dsp;
#X obj 34 379 r \$0-out-slider;
#X obj 34 472 s \$0-out-slider_rcv;
#X obj 371 501 s \$0-out-slider_rcv;
#X obj 34 402 s \$0-out-num_rcv;
#X obj 34 426 r \$0-out-num;
#X obj 398 418 r \$0-out-num;
#X obj 2 18 vsl 15 33 0 1 0 0 \$0-in-slider \$0-in-slider_rcv empty
0 -9 0 10 -262144 -1 -1 0 1;
#X obj 2 57 nbx 3 14 0 1 0 0 \$0-in-num \$0-in-num_rcv empty 0 -8 0
8 -262144 -1 -1 0 256;
#X obj 21 16 tgl 15 0 \$0-in-toggle \$0-in-toggle_rcv empty 17 7 0
10 -262144 -1 -1 0 1;
#X text 0 1 in;
#X msg 34 266 set \$1;
#X obj 321 306 f;
#X obj 337 284 route 0;
#X obj 321 238 route 1, f 18;
#X obj 33 289 s \$0-in-slider_rcv;
#X obj 24 312 s \$0-in-toggle_rcv;
#X obj 35 195 r \$0-in-slider;
#X obj 35 218 s \$0-in-num_rcv;
#X obj 187 223 r \$0-in-num;
#X obj 366 332 s \$0-in-slider_rcv;
#X obj 337 261 r \$0-in-num;
#X obj 321 214 r \$0-in-toggle;
#X obj 35 242 r \$0-in-num;
#X obj 60 18 vsl 15 33 0 1 0 0 \$0-sc-slider \$0-sc-slider_rcv empty
0 -9 0 10 -262144 -1 -1 0 1;
#X obj 60 57 nbx 3 14 0 1 0 0 \$0-sc-num \$0-sc-num_rcv empty 0 -8
0 8 -262144 -1 -1 0 256;
#X text 58 0 ->;
#X msg 39 632 set \$1;
#X obj 40 608 r \$0-sc-num;
#X obj 38 655 s \$0-sc-slider_rcv;
#X obj 29 678 s \$0-sc-toggle_rcv;
#X obj 40 561 r \$0-sc-slider;
#X obj 40 584 s \$0-sc-num_rcv;
#X obj 2 75 cnv 15 40 14 empty \$0-in-cnv_rcv 0 1 9 1 14 -233017 -66577
0;
#X obj 192 159 s \$0-in-cnv_rcv;
#X obj 114 75 cnv 15 40 14 empty \$0-out-cnv_rcv 0 1 9 1 14 -233017
-66577 0;
#N canvas 0 30 798 854 env 0;
#X obj 43 18 inlet~;
#X obj 56 350 outlet;
#X obj 73 70 env~;
#X obj 71 126 / 100;
#X msg 63 174 label \$1;
#X obj 71 149 l2s;
#X obj 73 93 int;
#X connect 0 0 2 0;
#X connect 2 0 6 0;
#X connect 3 0 5 0;
#X connect 4 0 1 0;
#X connect 5 0 4 0;
#X connect 6 0 3 0;
#X restore 192 132 pd env;
#N canvas 0 30 798 854 env 0;
#X obj 43 18 inlet~;
#X obj 56 350 outlet;
#X obj 73 70 env~;
#X obj 71 126 / 100;
#X msg 63 174 label \$1;
#X obj 71 149 l2s;
#X obj 73 93 int;
#X connect 0 0 2 0;
#X connect 2 0 6 0;
#X connect 3 0 5 0;
#X connect 4 0 1 0;
#X connect 5 0 4 0;
#X connect 6 0 3 0;
#X restore 423 152 pd env;
#X obj 423 179 s \$0-out-cnv_rcv;
#X obj 242 129 outlet~;
#X obj 296 129 outlet~;
#X obj 478 22 inlet;
#X obj 476 152 outlet;
#X obj 495 105 t a a;
#X obj 352 127 outlet~;
#X obj 428 125 outlet~;
#X obj 187 246 sdPack in-vol;
#X obj 187 269 sdPack set;
#X obj 187 292 s \$1;
#X obj 530 218 sdPackToMessage;
#X obj 530 625 s \$0-in-slider_rcv;
#X msg 530 603 set \$1;
#X obj 515 648 s \$0-in-num_rcv;
#X msg 569 514 set \$1;
#X obj 557 559 s \$0-out-num_rcv;
#X obj 569 536 s \$0-out-slider_rcv;
#X obj 188 424 sdPack set;
#X obj 188 447 s \$1;
#X obj 188 378 r \$0-out-num;
#X obj 188 401 sdPack out-vol;
#X msg 598 444 set \$1;
#X obj 583 489 s \$0-sc-num_rcv;
#X obj 598 466 s \$0-sc-slider_rcv;
#X obj 188 604 sdPack set;
#X obj 188 627 s \$1;
#X obj 188 558 r \$0-sc-num;
#X obj 188 581 sdPack shortcut-vol;
#X msg 639 323 set \$1;
#X obj 639 345 s \$0-dsp_rcv;
#X obj 265 491 sdPack set;
#X obj 265 514 s \$1;
#X obj 265 468 sdPack audio-on;
#X obj 530 241 route in-vol out-vol shortcut-vol, f 26;
#X msg 674 395 set \$1;
#X obj 672 417 s \$0-out-overflow_rcv;
#X obj 155 75 tgl 13 0 \$0-out-overflow \$0-out-overflow_rcv empty
17 7 0 10 -262144 -258113 -1 1 1;
#X obj 43 75 tgl 13 0 \$0-in-overflow \$0-in-overflow_rcv empty 17
7 0 10 -262144 -258113 -1 1 1;
#X obj 531 167 sdObjTrack audio-on in-vol out-vol shortcut-vol out-overflow
in-overflow, f 28;
#X obj 639 286 route audio-on out-overflow in-overflow, f 25;
#X msg 729 372 set \$1;
#X obj 727 394 s \$0-in-overflow_rcv;
#X obj 328 582 sdPack set;
#X obj 328 605 s \$1;
#X obj 328 535 r \$0-out-overflow;
#X obj 328 559 sdPack out-overflow;
#X obj 365 653 sdPack set;
#X obj 365 676 s \$1;
#X obj 365 606 r \$0-in-overflow;
#X obj 365 630 sdPack in-overflow;
#X obj 312 76 sdIO_obj~ \$1 \$2 \$3 \$4 \$5;
#X connect 4 0 99 0;
#X connect 5 0 99 1;
#X connect 6 0 12 0;
#X connect 7 0 13 0;
#X connect 8 1 7 1;
#X connect 9 0 7 0;
#X connect 9 1 13 0;
#X connect 10 0 9 0;
#X connect 10 0 81 0;
#X connect 11 0 14 0;
#X connect 15 0 6 0;
#X connect 16 0 8 0;
#X connect 21 0 25 0;
#X connect 21 0 26 0;
#X connect 22 0 30 0;
#X connect 23 1 22 1;
#X connect 24 0 22 0;
#X connect 24 1 30 0;
#X connect 27 0 28 0;
#X connect 29 0 56 0;
#X connect 31 0 23 0;
#X connect 32 0 24 0;
#X connect 33 0 21 0;
#X connect 37 0 39 0;
#X connect 37 0 40 0;
#X connect 38 0 37 0;
#X connect 41 0 42 0;
#X connect 46 0 44 0;
#X connect 47 0 48 0;
#X connect 51 0 99 2;
#X connect 53 0 52 0;
#X connect 53 1 87 0;
#X connect 56 0 57 0;
#X connect 57 0 58 0;
#X connect 59 0 82 0;
#X connect 61 0 60 0;
#X connect 61 0 62 0;
#X connect 63 0 65 0;
#X connect 63 0 64 0;
#X connect 66 0 67 0;
#X connect 68 0 69 0;
#X connect 69 0 66 0;
#X connect 70 0 72 0;
#X connect 70 0 71 0;
#X connect 73 0 74 0;
#X connect 75 0 76 0;
#X connect 76 0 73 0;
#X connect 77 0 78 0;
#X connect 79 0 80 0;
#X connect 81 0 79 0;
#X connect 82 0 61 0;
#X connect 82 1 63 0;
#X connect 82 2 70 0;
#X connect 82 3 88 0;
#X connect 83 0 84 0;
#X connect 87 0 59 0;
#X connect 88 0 77 0;
#X connect 88 1 83 0;
#X connect 88 2 89 0;
#X connect 89 0 90 0;
#X connect 91 0 92 0;
#X connect 93 0 94 0;
#X connect 94 0 91 0;
#X connect 95 0 96 0;
#X connect 97 0 98 0;
#X connect 98 0 95 0;
#X connect 99 0 49 0;
#X connect 99 0 46 0;
#X connect 99 1 50 0;
#X connect 99 1 46 0;
#X connect 99 2 47 0;
#X connect 99 2 54 0;
#X connect 99 3 47 0;
#X connect 99 3 55 0;
#X connect 99 4 53 0;
#X coords 0 -1 1 1 180 100 2 0 0;
