#N canvas 0 30 846 854 10;
#X obj 669 683 send \$0-slider_rcv;
#X obj 344 513 pack 0 0;
#X obj 299 463 r \$0-min;
#X obj 366 464 r \$0-max;
#X obj 366 487 t b f;
#X msg 344 536 range \$1 \$2;
#X obj 344 560 send \$0-num_rcv;
#X text 295 445 set range;
#X obj 89 225 r \$0-slider;
#X obj 94 271 s \$0-num_rcv;
#X obj 93 311 r \$0-num;
#X msg 127 401 set \$1;
#X obj 127 425 s \$0-slider_rcv;
#X obj 274 32 t b b;
#X floatatom 262 132 5 0 0 0 - - -;
#X floatatom 437 133 5 0 0 0 - - -;
#X obj 262 154 s \$0-min;
#X obj 482 135 s \$0-max;
#X obj 274 9 loadbang;
#X obj 567 767 namecanvas \$0-canvas;
#X text 564 749 give this canvas a unique name:;
#X obj 2 5 vsl 12 101 0 100 0 0 \$0-slider \$0-slider_rcv empty 0 -9
0 10 -262144 -1 -1 7800 1;
#X obj 2 112 nbx 5 14 0 100 0 0 \$0-num \$0-num_rcv empty 0 -8 0 10
-262144 -1 -1 78 256;
#X obj 115 11 inlet;
#X obj 215 9 inlet;
#X obj 481 12 inlet;
#X obj 98 681 s \$0-maxLabel_rcv;
#X obj 98 612 r \$0-max;
#X msg 98 658 label \$1;
#X obj 98 635 makefilename %s;
#X msg 98 765 label \$1;
#X obj 98 742 makefilename %s;
#X obj 98 719 r \$0-min;
#X obj 98 788 s \$0-minLabel_rcv;
#X obj 481 35 t b f;
#X obj 53 389 outlet;
#X obj 93 334 t f f;
#X obj 715 508 t b f;
#X obj 689 542 pack;
#X obj 689 590 t a a;
#X obj 669 632 sdGate;
#X obj 656 485 r \$0-min;
#X obj 715 486 r \$0-max;
#X msg 669 659 range 0 \$1;
#X obj 94 248 +;
#X obj 170 227 r \$0-min;
#X obj 142 354 r \$0-min;
#X obj 127 377 -;
#X obj 689 567 expr $f2-$f1;
#N canvas 0 30 846 854 position 0;
#X obj 411 204 + 1;
#X obj 410 251 send \$0-slider_rcv;
#X obj 231 313 send \$0-num_rcv;
#X obj 67 359 s \$0-canvas;
#X text 379 332 donecanvasdialog <xunit> <yunits> <gopmode> <xfrom>
<yfrom> <xto> <yto> <width> <height> <xoffset> <yoffset> 1;
#X obj 231 267 + 12;
#X obj 66 314 + 28;
#X msg 231 290 pos 2 \$1;
#X obj 388 300 s \$0-maxLabel_rcv;
#X obj 459 180 s \$0-minLabel_rcv;
#X msg 459 156 pos 20 \$1;
#X msg 389 278 pos 20 3;
#X obj 458 131 - 5;
#X obj 228 105 t f f f f;
#X obj 198 24 inlet;
#X msg 410 227 pos 2 5 \, size 12 \$1;
#X msg 66 337 donecanvasdialog 0 0 3 0 0 1 1 62 \$1 0 0 1 \, dirty
0;
#X connect 0 0 15 0;
#X connect 0 0 11 0;
#X connect 5 0 7 0;
#X connect 6 0 16 0;
#X connect 7 0 2 0;
#X connect 10 0 9 0;
#X connect 11 0 8 0;
#X connect 12 0 10 0;
#X connect 13 0 6 0;
#X connect 13 1 5 0;
#X connect 13 2 0 0;
#X connect 13 3 12 0;
#X connect 14 0 13 0;
#X connect 15 0 1 0;
#X connect 16 0 3 0;
#X restore 484 422 pd position gui;
#X obj 719 613 >= 20;
#X obj 261 70 f \$1;
#X obj 485 72 f \$2;
#X obj 592 37 inlet;
#X obj 592 60 f \$3;
#X obj 637 36 loadbang;
#X obj 16 18 nbx 4 12 -1e+37 1e+37 0 0 \$0-min \$0-min_rcv empty 0
-8 0 10 -262144 -1 -1 0 256;
#X obj 16 3 nbx 4 12 -1e+37 1e+37 0 0 \$0-max \$0-max_rcv empty 0 -8
0 10 -262144 -1 -1 100 256;
#X obj 331 658 r \$0-min;
#X msg 331 681 set \$1;
#X obj 331 704 s \$0-min_rcv;
#X msg 479 676 set \$1;
#X obj 479 653 r \$0-max;
#X obj 479 699 s \$0-max_rcv;
#X obj 16 33 nbx 4 12 -1e+37 1e+37 0 0 \$0-res \$0-res_rcv empty 0
-8 0 10 -262144 -1 -1 1 256;
#X obj 592 83 s \$0-res;
#X msg 467 572 set \$1;
#X obj 467 549 r \$0-res;
#X obj 467 595 s \$0-res_rcv;
#X text 591 7 resolution/size;
#X obj 612 145 moses 0;
#X obj 651 168 route 0;
#X obj 612 122 r \$0-res;
#X obj 564 180 expr -$f1;
#X text 289 247 <0: fixed size \; >0: resolution -> size \; 0: default
fixed size (100) \;;
#X obj 666 370 *;
#X obj 651 313 t b f;
#X obj 637 337 -;
#X obj 632 266 r \$0-max;
#X obj 651 290 r \$0-min;
#X obj 759 275 t b f;
#X floatatom 666 393 5 0 0 0 - - -;
#X floatatom 680 141 5 0 0 0 - - -;
#X obj 499 366 max 36;
#X obj 261 95 expr if($f1==$f2 && $f1==0 \, 0 \, $f1) \; if($f1==$f2
&& $f1==0 \, 1 \, $f2);
#X obj 651 191 f 50;
#X obj 103 134 s \$0-slider_rcv;
#X obj 118 63 r \$0-min;
#X obj 103 86 -;
#X connect 1 0 5 0;
#X connect 2 0 1 0;
#X connect 3 0 4 0;
#X connect 4 0 1 0;
#X connect 4 1 1 1;
#X connect 5 0 6 0;
#X connect 8 0 44 0;
#X connect 10 0 36 0;
#X connect 11 0 12 0;
#X connect 13 0 51 0;
#X connect 13 1 52 0;
#X connect 14 0 16 0;
#X connect 18 0 13 0;
#X connect 23 0 88 0;
#X connect 24 0 51 0;
#X connect 25 0 34 0;
#X connect 27 0 29 0;
#X connect 28 0 26 0;
#X connect 29 0 28 0;
#X connect 30 0 33 0;
#X connect 31 0 30 0;
#X connect 32 0 31 0;
#X connect 34 0 84 0;
#X connect 34 1 52 0;
#X connect 36 0 35 0;
#X connect 36 1 47 0;
#X connect 37 0 38 0;
#X connect 37 1 38 1;
#X connect 38 0 48 0;
#X connect 39 0 40 0;
#X connect 39 1 50 0;
#X connect 40 0 43 0;
#X connect 40 1 43 0;
#X connect 41 0 38 0;
#X connect 42 0 37 0;
#X connect 43 0 0 0;
#X connect 44 0 9 0;
#X connect 45 0 44 1;
#X connect 46 0 47 1;
#X connect 47 0 11 0;
#X connect 48 0 39 0;
#X connect 50 0 40 1;
#X connect 51 0 84 0;
#X connect 52 0 84 1;
#X connect 53 0 54 0;
#X connect 54 0 65 0;
#X connect 55 0 54 0;
#X connect 58 0 59 0;
#X connect 59 0 60 0;
#X connect 61 0 63 0;
#X connect 62 0 61 0;
#X connect 66 0 68 0;
#X connect 67 0 66 0;
#X connect 70 0 73 0;
#X connect 70 1 71 0;
#X connect 71 0 85 0;
#X connect 71 1 80 0;
#X connect 72 0 70 0;
#X connect 72 0 82 0;
#X connect 73 0 83 0;
#X connect 75 0 81 0;
#X connect 75 0 83 0;
#X connect 76 0 77 0;
#X connect 76 1 77 1;
#X connect 77 0 75 0;
#X connect 78 0 77 0;
#X connect 79 0 76 0;
#X connect 80 0 75 0;
#X connect 80 1 75 1;
#X connect 83 0 49 0;
#X connect 84 0 14 0;
#X connect 84 1 15 0;
#X connect 84 1 17 0;
#X connect 85 0 83 0;
#X connect 87 0 88 1;
#X connect 88 0 86 0;
#X coords 0 0 1 1 62 128 2 0 0;
