#N canvas 0 30 721 736 10;
#X obj 344 38 inlet;
#X obj 547 325 outlet;
#X obj 464 128 list;
#X obj 162 227 sdEventToProperties;
#X text 377 173 events;
#X text 436 173 msgs;
#X obj 91 329 s \$0-fromObj;
#X obj 464 106 r \$0-fromObj;
#X obj 92 280 inlet~;
#X obj 142 280 inlet~;
#X obj 394 153 sdObjState \$1 \$2 \$3;
#X obj 92 303 sdOut~ \$4, f 20;
#X obj 184 186 sdPackFilter info update, f 18;
#X connect 0 0 10 0;
#X connect 2 0 10 1;
#X connect 3 0 11 2;
#X connect 3 1 11 2;
#X connect 7 0 2 0;
#X connect 8 0 11 0;
#X connect 9 0 11 1;
#X connect 10 0 12 0;
#X connect 10 1 11 2;
#X connect 10 2 1 0;
#X connect 11 0 6 0;
#X connect 12 1 3 0;
