#N canvas 0 30 844 722 10;
#X obj 260 4 inlet~;
#X obj 324 2 inlet~;
#X obj 15 81 r \$0-slider;
#X obj 15 104 s \$0-num_rcv;
#X obj 2 7 vsl 15 33 0 1 0 0 \$0-slider \$0-slider_rcv empty 0 -9 0
10 -262144 -1 -1 2900 1;
#X obj 2 46 nbx 3 14 0 1 0 0 \$0-num \$0-num_rcv empty 0 -8 0 8 -262144
-1 -1 0.90625 256;
#X obj 443 2 inlet;
#X obj 19 5 tgl 15 0 \$0-dsp \$0-dsp_rcv empty 17 7 0 10 -262144 -1
-1 1 1;
#X obj 15 128 r \$0-num;
#X msg 15 151 set \$1;
#X obj 15 174 s \$0-slider_rcv;
#X obj 108 464 s \$0-slider_rcv;
#X obj 74 442 f;
#X obj 82 396 r \$0-num;
#X obj 82 419 route 0;
#X obj 68 371 route 1, f 16;
#X text 17 22 out;
#X obj 264 51 sdOut_obj~ \$1 \$2 \$3;
#X obj 260 120 outlet;
#X obj 136 93 r \$0-num;
#X obj 136 116 sdPack volume;
#X obj 136 139 sdPack set;
#X obj 136 162 s \$1;
#X obj 308 129 sdPackToMessage;
#X obj 313 249 s \$0-in-slider_rcv;
#X msg 313 227 set \$1;
#X obj 298 272 s \$0-in-num_rcv;
#X msg 382 200 set \$1;
#X obj 382 222 s \$0-dsp_rcv;
#X obj 382 177 route audio-on;
#X obj 264 74 t a a;
#X obj 308 106 sdObjTrack audio-on volume;
#X obj 308 151 route volume;
#X obj 134 298 sdPack set;
#X obj 134 321 s \$1;
#X obj 134 275 sdPack audio-on;
#X obj 68 348 r \$0-dsp;
#X obj 134 252 r \$0-dsp;
#X connect 0 0 17 0;
#X connect 1 0 17 1;
#X connect 2 0 3 0;
#X connect 6 0 17 2;
#X connect 8 0 9 0;
#X connect 9 0 10 0;
#X connect 12 0 11 0;
#X connect 13 0 14 0;
#X connect 14 1 12 1;
#X connect 15 0 12 0;
#X connect 15 1 11 0;
#X connect 17 0 30 0;
#X connect 19 0 20 0;
#X connect 20 0 21 0;
#X connect 21 0 22 0;
#X connect 23 0 32 0;
#X connect 25 0 24 0;
#X connect 25 0 26 0;
#X connect 27 0 28 0;
#X connect 29 0 27 0;
#X connect 30 0 18 0;
#X connect 30 1 31 0;
#X connect 31 0 23 0;
#X connect 32 0 25 0;
#X connect 32 1 29 0;
#X connect 33 0 34 0;
#X connect 35 0 33 0;
#X connect 36 0 15 0;
#X connect 37 0 35 0;
#X coords 0 -1 1 1 39 63 2 0 0;
