#N canvas 0 30 844 722 10;
#X obj 344 38 inlet;
#X obj 547 325 outlet;
#X obj 464 128 list;
#X obj 179 197 sdEventToProperties;
#X text 377 173 events;
#X text 436 173 msgs;
#X obj 91 329 s \$0-fromObj;
#X obj 464 106 r \$0-fromObj;
#X obj 394 153 sdObjState \$1 \$2;
#X obj 92 303 sdOut~ \$3, f 20;
#X obj 92 280 inlet~;
#X obj 142 280 inlet~;
#X connect 0 0 8 0;
#X connect 2 0 8 1;
#X connect 3 1 9 2;
#X connect 7 0 2 0;
#X connect 8 0 3 0;
#X connect 8 1 9 2;
#X connect 8 2 1 0;
#X connect 9 0 6 0;
#X connect 10 0 9 0;
#X connect 11 0 9 1;
