#N canvas 0 30 844 722 10;
#X obj 58 350 dac~;
#X obj 29 296 *~;
#X obj 28 113 inlet~;
#X obj 109 115 inlet~;
#X obj 96 296 *~;
#X obj 27 169 clip~ -1 1;
#X obj 110 177 clip~ -1 1;
#X obj 184 383 line~;
#X obj 184 332 dbtorms;
#X obj 184 308 * 100;
#X floatatom 246 304 5 0 0 0 - - -;
#X obj 32 231 hip~ 3;
#X obj 110 242 hip~ 3;
#X obj 184 360 pack 0 50;
#X obj 393 32 inlet;
#X obj 410 152 outlet;
#X obj 393 55 sdProperty volume \$0 \$1 intern;
#X msg 554 386 \; pd dsp \$1;
#X msg 565 346 1;
#X msg 600 361 0;
#X obj 601 338 del 50;
#X obj 572 308 route 0;
#X obj 452 84 sdProperty audio-on \$0;
#X obj 576 278 r \$0-audio-on;
#X obj 184 285 r \$0-volume;
#X connect 1 0 0 0;
#X connect 2 0 5 0;
#X connect 3 0 6 0;
#X connect 4 0 0 1;
#X connect 5 0 11 0;
#X connect 6 0 12 0;
#X connect 7 0 1 1;
#X connect 7 0 4 1;
#X connect 8 0 13 0;
#X connect 9 0 8 0;
#X connect 11 0 1 0;
#X connect 12 0 4 0;
#X connect 13 0 7 0;
#X connect 14 0 16 0;
#X connect 16 0 15 0;
#X connect 16 1 22 0;
#X connect 18 0 17 0;
#X connect 19 0 17 0;
#X connect 20 0 19 0;
#X connect 21 0 20 0;
#X connect 21 1 18 0;
#X connect 22 0 15 0;
#X connect 23 0 21 0;
#X connect 24 0 9 0;
#X connect 24 0 10 0;
