#N canvas 0 30 846 854 10;
#X obj 58 350 dac~;
#X obj 29 296 *~;
#X obj 28 113 inlet~;
#X obj 109 115 inlet~;
#X obj 96 296 *~;
#X obj 27 169 clip~ -1 1;
#X obj 110 177 clip~ -1 1;
#X obj 206 206 r \$0-slider;
#X obj 206 229 s \$0-num_rcv;
#X obj 184 285 r \$0-num;
#X obj 244 28 t b b;
#X obj 290 66 f \$1;
#X obj 244 5 loadbang;
#X obj 605 24 namecanvas \$0-canvas;
#X text 602 6 give this canvas a unique name:;
#X obj 2 7 vsl 15 33 0 1 0 0 \$0-slider \$0-slider_rcv empty 0 -9 0
10 -262144 -1 -1 1500 1;
#X obj 2 46 nbx 3 14 0 1 0 0 \$0-num \$0-num_rcv empty 0 -8 0 8 -262144
-1 -1 0.46875 256;
#X obj 345 3 inlet;
#X obj 19 5 tgl 15 0 \$0-toggle \$0-toggle_rcv empty 17 7 0 10 -262144
-1 -1 1 1;
#X obj 532 134 r \$0-toggle;
#X obj 191 123 r \$0-num;
#X msg 191 146 set \$1;
#X obj 191 169 s \$0-slider_rcv;
#X obj 578 231 s \$0-slider_rcv;
#X obj 592 204 f;
#X obj 664 116 r \$0-num;
#X obj 639 159 route 0;
#X obj 532 157 route 1;
#X obj 288 95 s \$0-slider_rcv;
#X obj 184 383 line~;
#X obj 184 332 dbtorms;
#X obj 184 308 * 100;
#X msg 367 264 \; pd dsp \$1;
#X msg 378 224 1;
#X msg 438 234 0;
#X text 17 22 out;
#X floatatom 246 304 5 0 0 0 - - -;
#X obj 32 231 hip~ 3;
#X obj 110 242 hip~ 3;
#X obj 439 211 del 50;
#X obj 184 360 pack 0 50;
#X obj 385 171 route 0;
#X connect 1 0 0 0;
#X connect 2 0 5 0;
#X connect 3 0 6 0;
#X connect 4 0 0 1;
#X connect 5 0 37 0;
#X connect 6 0 38 0;
#X connect 7 0 8 0;
#X connect 9 0 31 0;
#X connect 9 0 36 0;
#X connect 10 0 11 0;
#X connect 11 0 28 0;
#X connect 12 0 10 0;
#X connect 17 0 11 0;
#X connect 19 0 27 0;
#X connect 19 0 41 0;
#X connect 20 0 21 0;
#X connect 21 0 22 0;
#X connect 24 0 23 0;
#X connect 25 0 26 0;
#X connect 26 1 24 1;
#X connect 27 0 24 0;
#X connect 27 1 23 0;
#X connect 29 0 1 1;
#X connect 29 0 4 1;
#X connect 30 0 40 0;
#X connect 31 0 30 0;
#X connect 33 0 32 0;
#X connect 34 0 32 0;
#X connect 37 0 1 0;
#X connect 38 0 4 0;
#X connect 39 0 34 0;
#X connect 40 0 29 0;
#X connect 41 0 39 0;
#X connect 41 1 33 0;
#X coords 0 -1 1 1 39 63 2 0 0;
