#N canvas 0 30 846 854 10;
#X obj 395 228 r \$0-min;
#X obj 336 228 r \$0-max;
#X obj 364 276 -;
#X obj 395 251 t b f;
#X obj 655 175 s \$0-max;
#X obj 591 175 s \$0-min;
#X floatatom 588 134 5 0 0 0 - - -;
#X floatatom 673 131 5 0 0 0 - - -;
#X obj 426 397 + 1;
#X obj 641 344 send \$0-slider_rcv;
#X obj 641 297 pack 0 0;
#X obj 596 247 r \$0-min;
#X obj 663 248 r \$0-max;
#X obj 663 271 t b f;
#X msg 641 320 range \$1 \$2;
#X obj 425 444 send \$0-slider_rcv;
#X obj 617 366 send \$0-num_rcv;
#X obj 246 506 send \$0-num_rcv;
#X text 592 229 set range;
#X obj 95 85 r \$0-slider;
#X obj 95 108 s \$0-num_rcv;
#X obj 96 138 r \$0-num;
#X msg 122 187 set \$1;
#X obj 122 210 s \$0-slider_rcv;
#X obj 274 32 t b b;
#X obj 261 70 f \$1;
#X obj 485 72 f \$2;
#X floatatom 262 132 5 0 0 0 - - -;
#X floatatom 437 133 5 0 0 0 - - -;
#X obj 262 154 s \$0-min;
#X obj 482 135 s \$0-max;
#X obj 261 95 expr if($f1==$f2 && $f1==0 \, -10 \, $f1) \; if($f1==$f2
&& $f1==0 \, 10 \, $f2);
#X obj 274 9 loadbang;
#X obj 605 24 namecanvas \$0-canvas;
#X obj 82 552 s \$0-canvas;
#X text 602 6 give this canvas a unique name:;
#X text 394 525 donecanvasdialog <xunit> <yunits> <gopmode> <xfrom>
<yfrom> <xto> <yto> <width> <height> <xoffset> <yoffset> 1;
#X msg 81 530 donecanvasdialog 0 0 3 0 0 1 1 50 \$1 0 0 1 \, dirty
0;
#X msg 425 420 pos 2 5 \, size 15 \$1;
#X obj 246 460 + 12;
#X obj 81 507 + 28;
#X msg 246 483 pos 2 \$1;
#X obj 403 493 s \$0-maxLabel_rcv;
#X obj 474 373 s \$0-minLabel_rcv;
#X msg 474 349 pos 20 \$1;
#X obj 20 15 cnv 15 24 10 empty \$0-minLabel_rcv -10 1 6 0 10 -233017
-66577 0;
#X obj 2 5 vsl 15 21 -10 10 0 0 \$0-slider \$0-slider_rcv empty 0 -9
0 10 -228856 -1 -1 1000 1;
#X obj 2 32 nbx 4 14 -10 10 0 0 \$0-num \$0-num_rcv empty 0 -8 0 10
-262144 -1 -1 0 256;
#X msg 404 471 pos 20 3;
#X obj 473 324 - 5;
#X obj 215 9 inlet;
#X obj 481 12 inlet;
#X obj 97 60 s \$0-slider_rcv;
#X obj 364 322 t f f f f;
#X obj 92 308 s \$0-maxLabel_rcv;
#X obj 92 239 r \$0-max;
#X msg 92 285 label \$1;
#X obj 92 262 makefilename %s;
#X msg 92 392 label \$1;
#X obj 92 369 makefilename %s;
#X obj 92 346 r \$0-min;
#X obj 92 415 s \$0-minLabel_rcv;
#X obj 481 35 t b f;
#X obj 20 3 cnv 15 24 10 empty \$0-maxLabel_rcv 10 1 6 0 10 -233017
-66577 0;
#X obj 32 186 outlet;
#X obj 96 161 t f f;
#X obj 115 11 inlet~;
#X obj 107 35 sdSig2Num~;
#X connect 0 0 3 0;
#X connect 1 0 2 0;
#X connect 2 0 53 0;
#X connect 3 0 2 0;
#X connect 3 1 2 1;
#X connect 6 0 5 0;
#X connect 7 0 4 0;
#X connect 8 0 38 0;
#X connect 8 0 48 0;
#X connect 10 0 14 0;
#X connect 11 0 10 0;
#X connect 12 0 13 0;
#X connect 13 0 10 0;
#X connect 13 1 10 1;
#X connect 14 0 9 0;
#X connect 14 0 16 0;
#X connect 19 0 20 0;
#X connect 21 0 65 0;
#X connect 22 0 23 0;
#X connect 24 0 25 0;
#X connect 24 1 26 0;
#X connect 25 0 31 0;
#X connect 26 0 31 1;
#X connect 27 0 29 0;
#X connect 31 0 27 0;
#X connect 31 1 28 0;
#X connect 31 1 30 0;
#X connect 32 0 24 0;
#X connect 37 0 34 0;
#X connect 38 0 15 0;
#X connect 39 0 41 0;
#X connect 40 0 37 0;
#X connect 41 0 17 0;
#X connect 44 0 43 0;
#X connect 48 0 42 0;
#X connect 49 0 44 0;
#X connect 50 0 25 0;
#X connect 51 0 62 0;
#X connect 53 0 40 0;
#X connect 53 1 39 0;
#X connect 53 2 8 0;
#X connect 53 3 49 0;
#X connect 55 0 57 0;
#X connect 56 0 54 0;
#X connect 57 0 56 0;
#X connect 58 0 61 0;
#X connect 59 0 58 0;
#X connect 60 0 59 0;
#X connect 62 0 31 0;
#X connect 62 1 26 0;
#X connect 65 0 64 0;
#X connect 65 1 22 0;
#X connect 66 0 67 0;
#X connect 67 0 52 0;
#X coords 0 0 1 1 50 48 2 0 0;
