#N canvas 0 0 798 854 10;
#X obj 274 26 inlet;
#X obj 352 60 list;
#X obj 107 161 sdEventToProperties;
#X text 265 105 events;
#X text 324 105 msgs;
#X obj 197 255 s \$0-fromObj;
#X obj 352 38 r \$0-fromObj;
#X obj 282 85 sdObjState \$1 \$2;
#X obj 22 27 inlet~;
#X obj 95 224 sdVol~ \$3 \$4;
#X obj 322 292 outlet \$1.in;
#X obj 203 85 t a a;
#X obj 413 290 outlet \$1.out;
#X obj 102 112 sdPackFilter info update, f 18;
#X obj 34 285 outlet~ sig;
#X obj 129 284 outlet~ 1-sig;
#X connect 0 0 7 0;
#X connect 1 0 7 1;
#X connect 2 0 9 1;
#X connect 2 1 9 1;
#X connect 6 0 1 0;
#X connect 7 0 11 0;
#X connect 7 1 9 1;
#X connect 7 2 12 0;
#X connect 8 0 9 0;
#X connect 9 0 14 0;
#X connect 9 1 15 0;
#X connect 9 2 5 0;
#X connect 11 0 13 0;
#X connect 11 1 10 0;
#X connect 13 1 2 0;
