#N canvas 0 30 803 722 10;
#X obj 142 5 inlet~;
#X obj 146 154 outlet~;
#X obj 166 109 line~;
#X obj 166 86 pack 0 50;
#X obj 146 131 *~;
#X obj 166 63 r \$0-volume;
#X obj 332 19 inlet;
#X obj 319 135 outlet;
#X obj 319 112 sdProperty volume \$0 \$1 update 0 1;
#X obj 566 92 route init;
#X obj 566 116 sdFloatBang \$2;
#X obj 566 139 route 0;
#X obj 605 186 s \$0-volume_rcv;
#X obj 332 42 t a a;
#X msg 605 163 priv.set_max \$1;
#X connect 0 0 4 0;
#X connect 2 0 4 1;
#X connect 3 0 2 0;
#X connect 4 0 1 0;
#X connect 5 0 3 0;
#X connect 6 0 13 0;
#X connect 8 0 7 0;
#X connect 9 0 10 0;
#X connect 10 0 11 0;
#X connect 11 1 14 0;
#X connect 13 0 8 0;
#X connect 13 1 9 0;
#X connect 14 0 12 0;
