#N canvas 805 30 559 118 10;
#X obj 19 119 r \$0-slider;
#X obj 19 142 s \$0-num_rcv;
#X obj 2 5 vsl 15 33 0 1 0 0 \$0-slider \$0-slider_rcv empty 0 -9 0
10 -262144 -1 -1 0 1;
#X obj 2 44 nbx 3 14 0 1 0 0 \$0-num \$0-num_rcv empty 0 -8 0 8 -262144
-1 -1 0 256;
#X obj 416 35 inlet;
#X obj 297 32 inlet~;
#X obj 212 175 outlet~;
#X obj 21 3 tgl 15 0 \$0-toggle \$0-toggle_rcv empty 17 7 0 10 -262144
-1 -1 0 1;
#X text 17 26 vol;
#X obj 42 334 r \$0-toggle;
#X obj 19 166 r \$0-num;
#X msg 19 189 set \$1;
#X obj 19 212 s \$0-slider_rcv;
#X obj 88 431 s \$0-slider_rcv;
#X obj 102 404 f;
#X obj 174 316 r \$0-num;
#X obj 149 359 route 0;
#X obj 42 357 route 1;
#X obj 119 211 s \$0-toggle_rcv;
#X obj 419 201 outlet;
#X obj 442 163 t a a;
#X obj 486 191 sdObjTrack volume;
#X obj 486 214 sdPackToMessage;
#X obj 486 237 route volume;
#X msg 486 260 set \$1;
#X obj 286 333 r \$0-num;
#X obj 286 356 sdPack volume;
#X obj 286 402 s \$1;
#X obj 486 283 s \$0-slider_rcv;
#X obj 470 306 s \$0-num_rcv;
#X msg 478 80 list init 0;
#X obj 446 444 sdPackFromHuman;
#X msg 446 421 list get_range ( volume );
#X obj 623 200 sdObjTrack range_info;
#X obj 622 276 route volume;
#X obj 622 223 sdUnPack;
#X obj 622 246 list trim;
#X msg 622 299 range \$1 \$2;
#X obj 622 322 s \$0-slider_rcv;
#X obj 286 379 sdPack set;
#X obj 611 351 s \$0-num_rcv;
#X obj 446 398 sdPackFilter init;
#X obj 446 467 s \$1;
#X obj 298 135 sdVol_obj~ \$1 \$2 \$3 \$4;
#X connect 0 0 1 0;
#X connect 4 0 43 1;
#X connect 5 0 43 0;
#X connect 9 0 17 0;
#X connect 10 0 11 0;
#X connect 11 0 12 0;
#X connect 11 0 18 0;
#X connect 14 0 13 0;
#X connect 15 0 16 0;
#X connect 16 1 14 1;
#X connect 17 0 14 0;
#X connect 17 1 13 0;
#X connect 20 0 19 0;
#X connect 20 1 21 0;
#X connect 20 1 33 0;
#X connect 21 0 22 0;
#X connect 22 0 23 0;
#X connect 23 0 24 0;
#X connect 24 0 28 0;
#X connect 24 0 29 0;
#X connect 25 0 26 0;
#X connect 26 0 39 0;
#X connect 30 0 43 1;
#X connect 31 0 42 0;
#X connect 32 0 31 0;
#X connect 33 0 35 0;
#X connect 34 0 37 0;
#X connect 35 0 36 0;
#X connect 36 0 34 0;
#X connect 37 0 38 0;
#X connect 37 0 40 0;
#X connect 39 0 27 0;
#X connect 41 0 32 0;
#X connect 43 0 6 0;
#X connect 43 1 41 0;
#X connect 43 2 20 0;
#X coords 0 0 1 1 39 60 2 0 0;
