#N canvas 0 30 844 722 10;
#X obj 142 5 inlet~;
#X obj 146 154 outlet~;
#X obj 166 109 line~;
#X obj 166 86 pack 0 50;
#X obj 146 131 *~;
#X obj 166 63 r \$0-volume;
#X obj 332 19 inlet;
#X obj 332 65 outlet;
#X obj 332 42 sdProperty volume \$0 \$1 intern;
#X connect 0 0 4 0;
#X connect 2 0 4 1;
#X connect 3 0 2 0;
#X connect 4 0 1 0;
#X connect 5 0 3 0;
#X connect 6 0 8 0;
#X connect 8 0 7 0;
