#N canvas 0 30 803 722 10;
#X obj 19 119 r \$0-slider;
#X obj 19 142 s \$0-num_rcv;
#X obj 2 5 vsl 15 33 0 3 0 0 \$0-slider \$0-slider_rcv empty 0 -9 0
10 -262144 -1 -1 0 1;
#X obj 2 44 nbx 3 14 0 3 0 0 \$0-num \$0-num_rcv empty 0 -8 0 8 -262144
-1 -1 0 256;
#X obj 416 35 inlet;
#X obj 297 32 inlet~;
#X obj 212 175 outlet~;
#X obj 21 3 tgl 15 0 \$0-toggle \$0-toggle_rcv empty 17 7 0 10 -262144
-1 -1 0 1;
#X text 17 26 vol;
#X obj 42 334 r \$0-toggle;
#X obj 19 166 r \$0-num;
#X msg 19 189 set \$1;
#X obj 19 212 s \$0-slider_rcv;
#X obj 88 431 s \$0-slider_rcv;
#X obj 102 404 f;
#X obj 174 316 r \$0-num;
#X obj 149 359 route 0;
#X obj 42 357 route 1;
#X obj 119 211 s \$0-toggle_rcv;
#X obj 388 171 outlet;
#X obj 475 12 r \$0-num;
#X obj 318 94 sdVol~ \$1 \$2;
#X msg 597 48 init;
#X obj 607 141 route volume range_info;
#X msg 667 226 range \$1 \$2;
#X obj 667 249 s \$0-slider_rcv;
#X obj 656 278 s \$0-num_rcv;
#X obj 675 169 route volume;
#X msg 525 310 set \$1;
#X obj 525 333 s \$0-slider_rcv;
#X obj 509 356 s \$0-num_rcv;
#X obj 389 122 t a a;
#X msg 475 35 set volume \$1;
#X obj 597 24 loadbang;
#X connect 0 0 1 0;
#X connect 4 0 21 1;
#X connect 5 0 21 0;
#X connect 9 0 17 0;
#X connect 10 0 11 0;
#X connect 11 0 12 0;
#X connect 11 0 18 0;
#X connect 14 0 13 0;
#X connect 15 0 16 0;
#X connect 16 1 14 1;
#X connect 17 0 14 0;
#X connect 17 1 13 0;
#X connect 20 0 32 0;
#X connect 21 0 6 0;
#X connect 21 1 31 0;
#X connect 22 0 21 1;
#X connect 23 0 28 0;
#X connect 23 1 27 0;
#X connect 24 0 25 0;
#X connect 24 0 26 0;
#X connect 27 0 24 0;
#X connect 28 0 29 0;
#X connect 28 0 30 0;
#X connect 31 0 19 0;
#X connect 31 1 23 0;
#X connect 32 0 21 1;
#X connect 33 0 22 0;
#X coords 0 0 1 1 39 60 2 0 0;
