#N canvas 0 30 846 854 10;
#X obj 80 157 sdRandomDoc;
#N canvas 0 30 846 854 sequencing 0;
#X obj 343 41 bng 15 250 50 0 empty empty restart_time 17 7 0 10 -262144
-1 -1;
#X text 63 173 output recorded sequence;
#X msg 342 228 clear;
#X obj 212 280 s \$0-sequence;
#X obj 96 193 bng 15 250 50 0 empty empty empty 17 7 0 10 -262144 -1
-1;
#X obj 263 512 r \$0-sequence;
#X msg 99 504 start;
#X obj 168 394 tgl 15 0 empty empty empty 17 7 0 10 -262144 -1 -1 0
1;
#X obj 435 283 s \$0-sequence;
#X obj 435 260 sdPackFromHuman;
#X obj 189 631 print next;
#X obj 142 630 bng 15 250 50 0 empty empty empty 17 7 0 10 -262144
-1 -1;
#X floatatom 261 634 5 0 0 0 - - -;
#X obj 313 617 bng 15 250 50 0 empty empty empty 17 7 0 10 -262144
-1 -1;
#X obj 305 642 print done;
#X obj 96 653 print bang;
#X obj 251 667 print delay;
#X floatatom 209 462 5 0 0 0 - - -;
#X obj 212 441 hsl 128 15 0.01 100 0 0 empty empty empty -2 -8 0 10
-262144 -1 -1 0 1;
#X obj 236 135 sdEvent pack value;
#X obj 212 257 sdData;
#X obj 229 28 bng 30 250 50 0 empty empty empty 17 7 0 10 -262144 -1
-1;
#X obj 236 112 sdCounter -1;
#X msg 314 86 0;
#X obj 591 31 r \$0-sequence;
#X obj 591 54 print sequence;
#X text 31 345 playback the recorded events;
#X text 210 6 tap some rhythm;
#X obj 263 559 list trim;
#X obj 263 536 list prepend set sequence;
#X obj 591 96 loadbang;
#X obj 591 142 s $init;
#X msg 591 119 init;
#X obj 365 571 r $init;
#X msg 208 484 set speed \$1;
#X msg 168 415 set keep_time \$1;
#X obj 184 586 sdSeqPlayer;
#X obj 435 201 loadbang;
#X obj 233 175 sdEventAddTime;
#X msg 435 224 list pack0 ( val ( 0 ) ) pack1 ( val ( 1 ) time ( 1000
) ) pack2 ( val ( 0 ) time ( 2000 ) );
#X obj 622 506 r \$0-sequence;
#X msg 495 540 start;
#X obj 622 553 list trim;
#X obj 622 530 list prepend set sequence;
#X obj 724 565 r $init;
#X obj 543 580 sdSeqPlayer;
#X obj 610 640 line;
#X obj 512 613 sdUnEvent val;
#X obj 613 676 vsl 15 64 0 1 0 0 empty empty empty 0 -9 0 10 -262144
-1 -1 0 1;
#X floatatom 613 748 5 0 0 0 - - -;
#X msg 409 339 list pack0 ( val ( 0 ) ) pack1 ( val ( 1 ) delay ( 1000
) ) pack2 ( val ( 0 ) delay ( 1000 ) );
#X text 416 310 "delay" specifies the "duration" to wait BEFORE the
next event:;
#X text 456 486 example: use a "line" obj to create "ramps":;
#X connect 0 0 2 0;
#X connect 0 0 23 0;
#X connect 0 0 38 1;
#X connect 2 0 20 0;
#X connect 4 0 20 0;
#X connect 5 0 29 0;
#X connect 6 0 36 0;
#X connect 7 0 35 0;
#X connect 9 0 8 0;
#X connect 17 0 34 0;
#X connect 18 0 17 0;
#X connect 19 0 38 0;
#X connect 20 0 3 0;
#X connect 21 0 22 0;
#X connect 22 0 19 0;
#X connect 23 0 22 0;
#X connect 24 0 25 0;
#X connect 28 0 36 0;
#X connect 29 0 28 0;
#X connect 30 0 32 0;
#X connect 32 0 31 0;
#X connect 33 0 36 0;
#X connect 34 0 36 0;
#X connect 35 0 36 0;
#X connect 36 0 11 0;
#X connect 36 0 15 0;
#X connect 36 1 10 0;
#X connect 36 2 12 0;
#X connect 36 2 16 0;
#X connect 36 3 13 0;
#X connect 36 3 14 0;
#X connect 37 0 39 0;
#X connect 38 0 20 0;
#X connect 39 0 9 0;
#X connect 40 0 43 0;
#X connect 41 0 45 0;
#X connect 42 0 45 0;
#X connect 43 0 42 0;
#X connect 44 0 45 0;
#X connect 45 1 47 0;
#X connect 45 2 46 1;
#X connect 46 0 48 0;
#X connect 47 0 46 0;
#X connect 48 0 49 0;
#X connect 50 0 9 0;
#X restore 85 383 pd sequencing;
#X text 53 264 gui elements;
#X text 48 210 signal;
#N canvas 0 30 846 854 signal 0;
#X floatatom 156 25 5 0 0 0 - - -;
#X floatatom 223 164 5 0 0 0 - - -;
#X obj 164 59 sdF2Sig~;
#X obj 223 140 sdSig2F~;
#X obj 282 98 sdGate~ 0;
#X obj 353 67 tgl 15 0 empty empty empty 17 7 0 10 -262144 -1 -1 0
1;
#X floatatom 387 157 5 0 0 0 - - -;
#X obj 387 133 sdSig2F~;
#X connect 0 0 2 0;
#X connect 2 0 4 0;
#X connect 3 0 1 0;
#X connect 4 0 3 0;
#X connect 4 1 7 0;
#X connect 5 0 4 1;
#X connect 7 0 6 0;
#X restore 83 239 pd signal;
#X text 50 137 random;
#X obj 84 64 sdMathDoc;
#X text 46 42 math utils;
#X text 53 357 record and play back events:;
#N canvas 848 30 750 263 gui 0;
#X obj 487 59 sdIn_ui~;
#X obj 606 398 sdOut_ui~;
#X floatatom 187 227 5 0 0 0 - - -;
#X floatatom 149 63 5 0 0 0 - - -;
#X floatatom 231 66 5 0 0 0 - - -;
#X floatatom 270 67 5 0 0 0 - - -;
#X text 233 46 min \, max;
#X floatatom 196 296 5 0 0 0 - - -;
#X floatatom 235 297 5 0 0 0 - - -;
#X text 198 269 min \, max;
#X floatatom 194 462 5 0 0 0 - - -;
#X floatatom 233 464 5 0 0 0 - - -;
#X text 196 435 min \, max;
#X floatatom 173 550 5 0 0 0 - - -;
#X text 21 23 sdNum_ui [min] [max];
#X floatatom 141 292 5 0 0 0 - - -;
#X obj 175 324 sdNum2Sig_ui~;
#X obj 174 492 sdSig2Num_ui~;
#X text 32 452 sdSig2Num_ui~ [min max];
#X text 31 334 sdNum2Sig_ui~ [min max];
#X obj 187 94 sdNum_ui 0 100;
#X obj 457 244 sdVol_ui~;
#X obj 412 363 env~;
#X floatatom 412 386 5 0 0 0 - - -;
#X obj 439 187 osc~ 440;
#X text 347 246 sdVol_ui~ [init];
#X obj 557 172 env~;
#X floatatom 557 195 5 0 0 0 - - -;
#X connect 0 0 26 0;
#X connect 3 0 20 0;
#X connect 4 0 20 1;
#X connect 5 0 20 2;
#X connect 7 0 16 1;
#X connect 8 0 16 2;
#X connect 10 0 17 1;
#X connect 11 0 17 2;
#X connect 15 0 16 0;
#X connect 16 0 17 0;
#X connect 17 0 13 0;
#X connect 20 0 2 0;
#X connect 21 0 22 0;
#X connect 21 0 1 0;
#X connect 21 0 1 1;
#X connect 22 0 23 0;
#X connect 24 0 21 0;
#X connect 26 0 27 0;
#X restore 85 292 pd gui utils;
