#N canvas 800 30 798 263 10;
#X obj 667 26 sgSequencingDoc;
#X text 656 4 legacy;
#N canvas 0 30 798 854 simple 1;
#X obj 343 41 bng 15 250 50 0 empty empty restart_time 17 7 0 10 -262144
-1 -1;
#X text 63 173 output recorded sequence;
#X obj 253 211 sgSeqAddTime;
#X msg 342 228 clear;
#X obj 212 280 s \$0-sequence;
#X obj 638 486 r \$0-sequence;
#X msg 465 450 start;
#X floatatom 631 656 5 0 0 0 - - -;
#X obj 737 617 bng 15 250 50 0 empty empty empty 17 7 0 10 -262144
-1 -1;
#X obj 729 642 print done;
#X floatatom 600 435 5 0 0 0 - - -;
#X obj 603 414 hsl 128 15 0.01 100 0 0 empty empty empty -2 -8 0 10
-262144 -1 -1 0 1;
#X obj 508 620 bng 15 250 50 0 empty empty empty 17 7 0 10 -262144
-1 -1;
#X text 621 674 delay until next event;
#X obj 561 363 tgl 15 0 empty empty empty 17 7 0 10 -262144 -1 -1 0
1;
#X obj 584 559 sgSeqPlayer 1;
#X obj 638 510 list prepend sequence;
#X obj 638 533 sgPack set;
#X obj 96 193 bng 15 250 50 0 empty empty empty 17 7 0 10 -262144 -1
-1;
#X obj 263 512 r \$0-sequence;
#X msg 99 504 start;
#X obj 168 394 tgl 15 0 empty empty empty 17 7 0 10 -262144 -1 -1 0
1;
#X msg 561 389 set 2 keepTime \$1;
#X obj 435 283 s \$0-sequence;
#X obj 435 260 sdPackFromHuman;
#X msg 435 224 list pack1 ( val ( 10 ) time ( 1000 ) ) pack2 ( val
( 20 ) time ( 2000 ) );
#X msg 168 414 list set 2 keepTime \$1;
#X obj 189 631 print next;
#X obj 558 617 print next;
#X obj 142 630 bng 15 250 50 0 empty empty empty 17 7 0 10 -262144
-1 -1;
#X floatatom 261 634 5 0 0 0 - - -;
#X obj 313 617 bng 15 250 50 0 empty empty empty 17 7 0 10 -262144
-1 -1;
#X obj 305 642 print done;
#X obj 517 658 print bang;
#X obj 96 653 print bang;
#X obj 251 667 print delay;
#X obj 650 633 print delay;
#X floatatom 209 462 5 0 0 0 - - -;
#X obj 212 441 hsl 128 15 0.01 100 0 0 empty empty empty -2 -8 0 10
-262144 -1 -1 115 1;
#X msg 599 457 list set 2 speed \$1;
#X obj 236 135 sdEvent pack value;
#X obj 212 257 sdData;
#X obj 229 28 bng 30 250 50 0 empty empty empty 17 7 0 10 -262144 -1
-1;
#X obj 236 112 sdCounter -1;
#X msg 314 86 0;
#X obj 591 31 r \$0-sequence;
#X obj 591 54 print sequence;
#X text 33 15 record events:;
#X text 31 345 playback the recorded events;
#X text 210 6 tap some rhythm;
#X obj 263 559 list trim;
#X obj 263 536 list prepend set sequence;
#X obj 591 96 loadbang;
#X obj 591 142 s $init;
#X msg 591 119 init;
#X obj 184 586 sdSeqPlayerScript;
#X obj 365 571 r $init;
#X msg 208 484 set speed \$1;
#X connect 0 0 3 0;
#X connect 0 0 2 1;
#X connect 0 0 44 0;
#X connect 2 0 41 1;
#X connect 3 0 41 0;
#X connect 5 0 16 0;
#X connect 6 0 15 0;
#X connect 10 0 39 0;
#X connect 11 0 10 0;
#X connect 14 0 22 0;
#X connect 15 0 12 0;
#X connect 15 0 33 0;
#X connect 15 1 28 0;
#X connect 15 2 7 0;
#X connect 15 2 36 0;
#X connect 15 3 8 0;
#X connect 15 3 9 0;
#X connect 16 0 17 0;
#X connect 17 0 15 0;
#X connect 18 0 41 0;
#X connect 19 0 51 0;
#X connect 20 0 55 0;
#X connect 21 0 26 0;
#X connect 22 0 15 0;
#X connect 24 0 23 0;
#X connect 25 0 24 0;
#X connect 26 0 55 0;
#X connect 37 0 57 0;
#X connect 38 0 37 0;
#X connect 39 0 15 0;
#X connect 40 0 2 0;
#X connect 41 0 4 0;
#X connect 42 0 43 0;
#X connect 43 0 40 0;
#X connect 44 0 43 0;
#X connect 45 0 46 0;
#X connect 50 0 55 0;
#X connect 51 0 50 0;
#X connect 52 0 54 0;
#X connect 54 0 53 0;
#X connect 55 0 29 0;
#X connect 55 0 34 0;
#X connect 55 1 27 0;
#X connect 55 2 30 0;
#X connect 55 2 35 0;
#X connect 55 3 31 0;
#X connect 55 3 32 0;
#X connect 56 0 55 0;
#X connect 57 0 55 0;
#X restore 51 41 pd simple example;
#X obj 398 217 textfile;
#X msg 397 188 read test \, rewind \, bang;
#X obj 397 242 s \$0-sequence;
#X obj 346 79 bng 15 250 50 0 empty empty restart_time 17 7 0 10 -262144
-1 -1;
#X text 39 152 output recorded sequence;
#X obj 216 162 sgSeqAddTime;
#X msg 305 179 clear;
#X obj 175 231 s \$0-sequence;
#X obj 72 172 bng 15 250 50 0 empty empty empty 17 7 0 10 -262144 -1
-1;
#X obj 203 7 vsl 15 64 0 127 0 0 empty empty empty 0 -9 0 10 -262144
-1 -1 0 1;
#X floatatom 203 79 5 0 0 0 - - -;
#X obj 200 105 sdEvent pack value;
#X obj 175 208 sdData;
#X connect 3 0 5 0;
#X connect 4 0 3 0;
#X connect 6 0 9 0;
#X connect 6 0 8 1;
#X connect 8 0 15 1;
#X connect 9 0 15 0;
#X connect 11 0 15 0;
#X connect 12 0 13 0;
#X connect 13 0 14 0;
#X connect 14 0 8 0;
#X connect 15 0 10 0;
