#N canvas 0 30 894 854 10;
#X obj 80 157 sdRandomDoc;
#X obj 531 159 sgRandomDoc;
#N canvas 0 30 894 854 sequencing 0;
#X obj 343 41 bng 15 250 50 0 empty empty restart_time 17 7 0 10 -262144
-1 -1;
#X text 63 173 output recorded sequence;
#X obj 253 211 sgSeqAddTime;
#X msg 342 228 clear;
#X obj 212 280 s \$0-sequence;
#X obj 638 486 r \$0-sequence;
#X msg 465 450 start;
#X floatatom 631 656 5 0 0 0 - - -;
#X obj 737 617 bng 15 250 50 0 empty empty empty 17 7 0 10 -262144
-1 -1;
#X obj 729 642 print done;
#X floatatom 600 435 5 0 0 0 - - -;
#X obj 603 414 hsl 128 15 0.01 100 0 0 empty empty empty -2 -8 0 10
-262144 -1 -1 0 1;
#X obj 508 620 bng 15 250 50 0 empty empty empty 17 7 0 10 -262144
-1 -1;
#X text 621 674 delay until next event;
#X obj 561 363 tgl 15 0 empty empty empty 17 7 0 10 -262144 -1 -1 0
1;
#X obj 584 559 sgSeqPlayer 1;
#X obj 96 193 bng 15 250 50 0 empty empty empty 17 7 0 10 -262144 -1
-1;
#X obj 263 512 r \$0-sequence;
#X msg 99 504 start;
#X obj 168 394 tgl 15 0 empty empty empty 17 7 0 10 -262144 -1 -1 0
1;
#X obj 435 283 s \$0-sequence;
#X obj 435 260 sdPackFromHuman;
#X msg 435 224 list pack1 ( val ( 10 ) time ( 1000 ) ) pack2 ( val
( 20 ) time ( 2000 ) );
#X obj 189 631 print next;
#X obj 558 617 print next;
#X obj 142 630 bng 15 250 50 0 empty empty empty 17 7 0 10 -262144
-1 -1;
#X floatatom 261 634 5 0 0 0 - - -;
#X obj 313 617 bng 15 250 50 0 empty empty empty 17 7 0 10 -262144
-1 -1;
#X obj 305 642 print done;
#X obj 517 658 print bang;
#X obj 96 653 print bang;
#X obj 251 667 print delay;
#X obj 650 633 print delay;
#X floatatom 209 462 5 0 0 0 - - -;
#X obj 212 441 hsl 128 15 0.01 100 0 0 empty empty empty -2 -8 0 10
-262144 -1 -1 0 1;
#X obj 236 135 sdEvent pack value;
#X obj 212 257 sdData;
#X obj 229 28 bng 30 250 50 0 empty empty empty 17 7 0 10 -262144 -1
-1;
#X obj 236 112 sdCounter -1;
#X msg 314 86 0;
#X obj 591 31 r \$0-sequence;
#X obj 591 54 print sequence;
#X text 31 345 playback the recorded events;
#X text 210 6 tap some rhythm;
#X obj 263 559 list trim;
#X obj 263 536 list prepend set sequence;
#X obj 591 96 loadbang;
#X obj 591 142 s $init;
#X msg 591 119 init;
#X obj 365 571 r $init;
#X msg 208 484 set speed \$1;
#X obj 184 586 sdSeqPlayerScript;
#X obj 638 510 list prepend set sequence;
#X obj 638 533 list trim;
#X msg 599 457 set speed \$1;
#X msg 561 389 set keepTime \$1;
#X msg 168 415 set keep_time \$1;
#X text 450 339 legacy object;
#X connect 0 0 3 0;
#X connect 0 0 2 1;
#X connect 0 0 39 0;
#X connect 2 0 36 1;
#X connect 3 0 36 0;
#X connect 5 0 52 0;
#X connect 6 0 15 0;
#X connect 10 0 54 0;
#X connect 11 0 10 0;
#X connect 14 0 55 0;
#X connect 15 0 12 0;
#X connect 15 0 29 0;
#X connect 15 1 24 0;
#X connect 15 2 7 0;
#X connect 15 2 32 0;
#X connect 15 3 8 0;
#X connect 15 3 9 0;
#X connect 16 0 36 0;
#X connect 17 0 45 0;
#X connect 18 0 51 0;
#X connect 19 0 56 0;
#X connect 21 0 20 0;
#X connect 22 0 21 0;
#X connect 33 0 50 0;
#X connect 34 0 33 0;
#X connect 35 0 2 0;
#X connect 36 0 4 0;
#X connect 37 0 38 0;
#X connect 38 0 35 0;
#X connect 39 0 38 0;
#X connect 40 0 41 0;
#X connect 44 0 51 0;
#X connect 45 0 44 0;
#X connect 46 0 48 0;
#X connect 48 0 47 0;
#X connect 49 0 51 0;
#X connect 50 0 51 0;
#X connect 51 0 25 0;
#X connect 51 0 30 0;
#X connect 51 1 23 0;
#X connect 51 2 26 0;
#X connect 51 2 31 0;
#X connect 51 3 27 0;
#X connect 51 3 28 0;
#X connect 52 0 53 0;
#X connect 53 0 15 0;
#X connect 54 0 15 0;
#X connect 55 0 15 0;
#X connect 56 0 51 0;
#X restore 85 383 pd sequencing;
#X text 416 32 legacy:;
#N canvas 0 30 894 854 basic 0;
#X obj 162 306 sgSig2F_ui~;
#X text 62 426 sgF_ui;
#X obj 73 497 sgF_ui;
#X floatatom 73 578 5 0 0 0 - - -;
#X floatatom 113 470 5 0 0 0 - - -;
#X floatatom 74 470 5 0 0 0 - - -;
#X obj 63 452 bng 15 250 50 0 empty empty empty 17 7 0 10 -262144 -1
-1;
#X floatatom 162 387 5 0 0 0 - - -;
#X obj 162 188 sgF2Sig_ui~;
#X obj 69 711 sgIn_ui~;
#X obj 135 711 sgOut_ui~;
#X text 16 193 sgF2Sig_ui~ [min max];
#X text 17 311 sgSig2F_ui~ [min max];
#X text 31 644 just for convenience:;
#X connect 0 0 7 0;
#X connect 2 0 3 0;
#X connect 4 0 2 1;
#X connect 5 0 2 0;
#X connect 6 0 2 0;
#X connect 8 0 0 0;
#X restore 536 296 pd basic;
#X text 504 267 gui elements;
#X text 499 213 signal;
#N canvas 0 30 894 854 signal 0;
#X obj 164 59 sgF2Sig~;
#X floatatom 156 25 5 0 0 0 - - -;
#X floatatom 167 144 5 0 0 0 - - -;
#X obj 167 120 sgSig2F~;
#X connect 0 0 3 0;
#X connect 1 0 0 0;
#X connect 3 0 2 0;
#X restore 534 242 pd signal;
#X text 503 137 random;
#N canvas 0 30 894 854 basic 0;
#X floatatom 73 578 5 0 0 0 - - -;
#X floatatom 113 470 5 0 0 0 - - -;
#X floatatom 74 470 5 0 0 0 - - -;
#X obj 63 452 bng 15 250 50 0 empty empty empty 17 7 0 10 -262144 -1
-1;
#X floatatom 160 387 5 0 0 0 - - -;
#X text 31 644 just for convenience:;
#X text 16 193 sdF2Sig_ui~ [min max];
#X text 17 311 sdSig2F_ui~ [min max];
#X text 62 426 sdF_ui;
#X obj 69 711 sdIn_ui~;
#X obj 135 711 sdOut_ui~;
#X obj 160 183 sdF2Sig_ui~;
#X obj 160 307 sdSig2F_ui~;
#X obj 73 495 sdF_ui;
#X connect 1 0 13 1;
#X connect 2 0 13 0;
#X connect 3 0 13 0;
#X connect 11 0 12 0;
#X connect 12 0 4 0;
#X connect 13 0 0 0;
#X restore 85 293 pd basic;
#X text 53 264 gui elements;
#X text 48 210 signal;
#N canvas 0 30 894 854 signal 0;
#X floatatom 156 25 5 0 0 0 - - -;
#X floatatom 167 144 5 0 0 0 - - -;
#X obj 164 59 sdF2Sig~;
#X obj 167 120 sdSig2F~;
#X connect 0 0 2 0;
#X connect 2 0 3 0;
#X connect 3 0 1 0;
#X restore 83 239 pd signal;
#X text 50 137 random;
#X obj 84 64 sdMathDoc;
#X obj 525 75 sgMathDoc;
#X text 500 53 math utils;
#X text 46 42 math utils;
#X text 53 357 record and play back events:;
#X text 493 385 legacy sequencing: see on the left;
