#N canvas 0 30 762 722 10;
#X obj 80 157 sdRandomDoc;
#N canvas 0 30 803 722 sequencing 0;
#X obj 343 41 bng 15 250 50 0 empty empty restart_time 17 7 0 10 -262144
-1 -1;
#X text 63 173 output recorded sequence;
#X msg 342 228 clear;
#X obj 212 280 s \$0-sequence;
#X obj 96 193 bng 15 250 50 0 empty empty empty 17 7 0 10 -262144 -1
-1;
#X obj 263 512 r \$0-sequence;
#X msg 99 504 start;
#X obj 168 394 tgl 15 0 empty empty empty 17 7 0 10 -262144 -1 -1 0
1;
#X obj 435 283 s \$0-sequence;
#X obj 435 260 sdPackFromHuman;
#X obj 189 631 print next;
#X obj 142 630 bng 15 250 50 0 empty empty empty 17 7 0 10 -262144
-1 -1;
#X floatatom 261 634 5 0 0 0 - - -;
#X obj 313 617 bng 15 250 50 0 empty empty empty 17 7 0 10 -262144
-1 -1;
#X obj 305 642 print done;
#X obj 96 653 print bang;
#X obj 251 667 print delay;
#X floatatom 209 462 5 0 0 0 - - -;
#X obj 212 441 hsl 128 15 0.01 100 0 0 empty empty empty -2 -8 0 10
-262144 -1 -1 0 1;
#X obj 236 135 sdEvent pack value;
#X obj 212 257 sdData;
#X obj 229 28 bng 30 250 50 0 empty empty empty 17 7 0 10 -262144 -1
-1;
#X obj 236 112 sdCounter -1;
#X msg 314 86 0;
#X obj 591 31 r \$0-sequence;
#X obj 591 54 print sequence;
#X text 31 345 playback the recorded events;
#X text 210 6 tap some rhythm;
#X obj 263 559 list trim;
#X obj 263 536 list prepend set sequence;
#X obj 591 96 loadbang;
#X obj 591 142 s $init;
#X msg 591 119 init;
#X msg 208 484 set speed \$1;
#X msg 168 415 set keep_time \$1;
#X obj 184 586 sdSeqPlayer;
#X obj 435 201 loadbang;
#X obj 233 175 sdEventAddTime;
#X msg 435 224 list pack0 ( val ( 0 ) ) pack1 ( val ( 1 ) time ( 1000
) ) pack2 ( val ( 0 ) time ( 2000 ) );
#X obj 622 506 r \$0-sequence;
#X msg 495 540 start;
#X obj 622 553 list trim;
#X obj 622 530 list prepend set sequence;
#X obj 543 580 sdSeqPlayer;
#X obj 610 640 line;
#X obj 512 613 sdUnEvent val;
#X obj 613 676 vsl 15 64 0 1 0 0 empty empty empty 0 -9 0 10 -262144
-1 -1 0 1;
#X floatatom 613 748 5 0 0 0 - - -;
#X msg 409 339 list pack0 ( val ( 0 ) ) pack1 ( val ( 1 ) delay ( 1000
) ) pack2 ( val ( 0 ) delay ( 1000 ) );
#X text 416 310 "delay" specifies the "duration" to wait BEFORE the
next event:;
#X text 456 486 example: use a "line" obj to create "ramps":;
#X msg 543 533 stop;
#X msg 86 549 stop;
#X connect 0 0 2 0;
#X connect 0 0 23 0;
#X connect 0 0 37 1;
#X connect 2 0 20 0;
#X connect 4 0 20 0;
#X connect 5 0 29 0;
#X connect 6 0 35 0;
#X connect 7 0 34 0;
#X connect 9 0 8 0;
#X connect 17 0 33 0;
#X connect 18 0 17 0;
#X connect 19 0 37 0;
#X connect 20 0 3 0;
#X connect 21 0 22 0;
#X connect 22 0 19 0;
#X connect 23 0 22 0;
#X connect 24 0 25 0;
#X connect 28 0 35 0;
#X connect 29 0 28 0;
#X connect 30 0 32 0;
#X connect 32 0 31 0;
#X connect 33 0 35 0;
#X connect 34 0 35 0;
#X connect 35 0 11 0;
#X connect 35 0 15 0;
#X connect 35 1 10 0;
#X connect 35 2 12 0;
#X connect 35 2 16 0;
#X connect 35 3 13 0;
#X connect 35 3 14 0;
#X connect 36 0 38 0;
#X connect 37 0 20 0;
#X connect 38 0 9 0;
#X connect 39 0 42 0;
#X connect 40 0 43 0;
#X connect 41 0 43 0;
#X connect 42 0 41 0;
#X connect 43 1 45 0;
#X connect 43 2 44 1;
#X connect 44 0 46 0;
#X connect 45 0 44 0;
#X connect 46 0 47 0;
#X connect 48 0 9 0;
#X connect 51 0 43 0;
#X connect 52 0 35 0;
#X restore 85 383 pd sequencing;
#X text 53 264 gui elements;
#X text 48 210 signal;
#N canvas 0 30 803 722 signal 0;
#X floatatom 156 25 5 0 0 0 - - -;
#X floatatom 223 164 5 0 0 0 - - -;
#X obj 282 98 sdGate~ 0;
#X obj 353 67 tgl 15 0 empty empty empty 17 7 0 10 -262144 -1 -1 0
1;
#X floatatom 387 157 5 0 0 0 - - -;
#X obj 164 59 sdNum2Sig~;
#X obj 387 133 sdSig2Num~;
#X obj 223 140 sdSig2Num~;
#X connect 0 0 5 0;
#X connect 2 0 7 0;
#X connect 2 1 6 0;
#X connect 3 0 2 1;
#X connect 5 0 2 0;
#X connect 6 0 4 0;
#X connect 7 0 1 0;
#X restore 83 239 pd signal;
#X text 50 137 random;
#X obj 84 64 sdMathDoc;
#X text 46 42 math utils;
#X text 53 357 record and play back events:;
#N canvas 0 30 762 722 gui 0;
#X obj 600 53 loadbang;
#X msg 600 76 list init 0;
#X obj 600 99 s \$0-GLOBAL;
#N canvas 0 30 803 722 sdNum_ui~ 0;
#X floatatom 404 80 5 0 0 0 - - -;
#X floatatom 50 85 5 0 0 0 - - -;
#X floatatom 111 92 5 0 0 0 - - -;
#X floatatom 150 93 5 0 0 0 - - -;
#X text 113 72 min \, max;
#X floatatom 189 91 5 0 0 0 - - -;
#X text 191 49 <0: fixed size \; >0: resolution -> size \; 0: default
fixed size (100) \;;
#X obj 72 120 sdNum_ui;
#X text 20 21 sdNum_ui min max size/resolution;
#X obj 443 102 sdNum_ui 0 100 1;
#X text 404 42 to use sdNum_ui as integer input: set 3 arg = 1, f
29;
#X connect 0 0 9 0;
#X connect 1 0 7 0;
#X connect 2 0 7 1;
#X connect 3 0 7 2;
#X connect 5 0 7 3;
#X restore 42 135 pd sdNum_ui~ min max size/resolution;
#N canvas 0 30 803 722 sdNum2Sig_ui~ 0;
#X obj 266 51 sdNum2Sig_ui~;
#X text 39 189 sdSig2Num_ui~ [min max];
#X text 38 71 sdNum2Sig_ui~ [min max];
#X obj 266 177 sdSig2Num_ui~;
#X connect 0 0 3 0;
#X restore 43 170 pd sdNum2Sig_ui~ \, sdSig2Num_ui~;
#N canvas 0 30 803 722 sdVol_obj_ui~ 0;
#X obj 251 74 osc~ 440;
#X obj 253 165 env~;
#X floatatom 253 188 5 0 0 0 - - -;
#X text 76 281 sdVol_obj_ui~ name global [val max], f 19;
#X text 74 102 sdVol_ui~ [val max];
#X obj 248 101 sdVol_ui~ 0.3 1;
#X obj 253 272 sdVol_obj_ui~ \$0-vol.0 \$0-GLOBAL 0.3 1;
#X text 73 244 same \, just as a fully adressable object:;
#X connect 0 0 5 0;
#X connect 1 0 2 0;
#X connect 5 0 1 0;
#X restore 43 205 pd sdVol_obj_ui~ \, sdVol_ui~;
#N canvas 0 30 762 722 in 0;
#X obj 248 139 env~;
#X floatatom 248 162 5 0 0 0 - - -;
#X obj 244 60 sdIn_obj_ui~ in \$0-GLOBAL;
#X text 388 518 events in;
#X text 396 628 events out;
#X obj 497 344 sdNum_ui 0 1 0.1;
#X text 216 494 audio out (l \, r);
#X text 201 638 audio in (l \, r);
#X obj 504 438 sdNum_ui 0 1000;
#X obj 340 343 osc~ 400;
#X text 301 658 audio out \, vol applied (l \, r);
#X obj 340 366 sdVol_ui~ 1 3;
#X obj 340 431 throw~ \$0-out;
#X obj 212 511 catch~ \$0-out;
#X obj 271 204 osc~ 400;
#X obj 271 227 sdVol_ui~ 1 3;
#X obj 241 308 sdOut_obj_ui~ out \$0-GLOBAL;
#X obj 217 535 sdIO_obj_ui~ io \$0-GLOBAL;
#X text 29 506 sdIO_obj_ui~ name global [group in-vol out-vol], f
23;
#X text 45 62 sdIn_obj_ui~ name global [group init], f 20;
#X text 29 330 sdOut_obj_ui~ name global [group init], f 22;
#X msg 497 413 list set ( out-vol ( \$1 ) );
#X msg 503 523 list set ( overflow-reset ( \$1 ) );
#X obj 479 549 sdPackFromHuman;
#X obj 479 572 s io;
#X obj 534 579 sdNum_ui 0 1 0.1;
#X msg 534 648 list set ( out-limit ( \$1 ) );
#X obj 534 672 sdPackFromHuman;
#X obj 534 695 s io;
#X text 604 580 set limit;
#X connect 0 0 1 0;
#X connect 2 0 0 0;
#X connect 2 1 0 0;
#X connect 5 0 21 0;
#X connect 8 0 22 0;
#X connect 9 0 11 0;
#X connect 11 0 12 0;
#X connect 13 0 17 0;
#X connect 13 0 17 1;
#X connect 14 0 15 0;
#X connect 15 0 16 0;
#X connect 15 0 16 1;
#X connect 21 0 23 0;
#X connect 22 0 23 0;
#X connect 23 0 24 0;
#X connect 25 0 26 0;
#X connect 26 0 27 0;
#X connect 27 0 28 0;
#X restore 44 288 pd in \, out;
#N canvas 0 30 762 722 overflow 0;
#X obj 320 149 sdOverflow2~ 1000;
#X obj 48 176 tgl 15 0 empty empty empty 17 7 0 10 -262144 -1 -1 0
1;
#X obj 47 53 osc~ 400;
#X obj 47 76 sdVol_ui~ 1 3;
#X text 300 99 stereo version;
#X obj 317 171 tgl 15 0 empty empty empty 17 7 0 10 -262144 -1 -1 0
1;
#X obj 472 99 loadbang;
#X msg 472 122 init;
#X obj 48 153 sdOverflow~ 1000;
#X obj 159 162 loadbang;
#X msg 159 185 init;
#X connect 0 0 5 0;
#X connect 2 0 3 0;
#X connect 3 0 0 0;
#X connect 3 0 8 0;
#X connect 6 0 7 0;
#X connect 7 0 0 2;
#X connect 8 0 1 0;
#X connect 9 0 10 0;
#X connect 10 0 8 1;
#X restore 44 243 pd overflow detection;
#X text 337 164 ..._obj~: fully adressable obj \; ..._ui~: gui obj
\; ..._obj_ui~: adressable gui obj \;;
#X text 316 145 naming convention:;
#X connect 0 0 1 0;
#X connect 1 0 2 0;
#X restore 85 292 pd gui utils;
