#N canvas 0 30 894 854 10;
#X obj 52 14 inlet;
#X msg 49 174 start;
#X msg 99 175 stop;
#X obj 216 247 t b f;
#X obj 300 370 pack f f;
#X obj 300 394 outlet;
#X obj 526 47 print;
#X msg 526 23 error unknown function "\$1";
#X obj 52 38 route start stop deltaT rndDelteT min max const;
#X obj 437 116 t f f;
#X obj 123 298 random 100000;
#X obj 135 142 sdFloatBang \$1;
#X obj 235 141 sdFloatBang \$2;
#X obj 380 196 sdFloatBang \$3;
#X obj 482 196 sdFloatBang \$4;
#X obj 123 323 sdMinMax 0 100000 \$3 \$4;
#X obj 85 207 sdRandomTime 5000 0;
#X connect 0 0 8 0;
#X connect 1 0 16 0;
#X connect 2 0 16 0;
#X connect 3 0 10 0;
#X connect 3 1 4 1;
#X connect 4 0 5 0;
#X connect 7 0 6 0;
#X connect 8 0 1 0;
#X connect 8 1 2 0;
#X connect 8 2 11 0;
#X connect 8 3 12 0;
#X connect 8 4 13 0;
#X connect 8 5 14 0;
#X connect 8 6 9 0;
#X connect 8 7 7 0;
#X connect 9 0 13 0;
#X connect 9 1 14 0;
#X connect 10 0 15 0;
#X connect 11 0 16 1;
#X connect 12 0 16 2;
#X connect 13 0 15 3;
#X connect 14 0 15 4;
#X connect 15 0 4 0;
#X connect 16 0 3 0;
