#N canvas 0 30 894 411 10;
#X obj 527 39 inlet;
#X obj 71 459 outlet;
#X obj 300 150 r \$0-Start;
#X obj 463 177 r \$0-Stop;
#X obj 484 333 r \$0-DeltaT;
#X obj 336 298 del 100;
#X msg 465 202 0;
#X msg 301 172 1;
#X obj 406 413 s \$0-TimeNext;
#X obj 378 278 r \$0-TimeNext;
#X obj 290 199 t b f;
#X obj 196 224 r \$0-DelLoop;
#X obj 379 435 s \$0-DelLoop;
#X obj 527 83 s \$0-DeltaT;
#X obj 118 15 inlet;
#X obj 118 76 s \$0-Start;
#X obj 164 55 s \$0-Stop;
#X obj 118 35 route start stop;
#X obj 740 41 inlet;
#X obj 740 83 s \$0-Delta;
#X obj 573 331 r \$0-Delta;
#X obj 379 394 t f f;
#X obj 292 278 t f b;
#X msg 290 220 0;
#X obj 379 328 random 1000;
#X obj 527 61 sdFloatBang \$1;
#X obj 741 62 sdFloatBang \$2;
#X obj 292 255 sdGate 1;
#X obj 379 373 sdCenterDelta 0 1000 5000 0;
#X connect 0 0 25 0;
#X connect 2 0 7 0;
#X connect 3 0 6 0;
#X connect 4 0 28 3;
#X connect 5 0 24 0;
#X connect 6 0 27 1;
#X connect 7 0 10 0;
#X connect 9 0 5 1;
#X connect 10 0 23 0;
#X connect 10 1 27 1;
#X connect 11 0 27 0;
#X connect 14 0 17 0;
#X connect 17 0 15 0;
#X connect 17 1 16 0;
#X connect 18 0 26 0;
#X connect 20 0 28 4;
#X connect 21 0 12 0;
#X connect 21 1 8 0;
#X connect 22 0 1 0;
#X connect 22 1 5 0;
#X connect 23 0 27 0;
#X connect 24 0 28 0;
#X connect 25 0 13 0;
#X connect 26 0 19 0;
#X connect 27 0 22 0;
#X connect 28 0 21 0;
